<?xml version="1.0" standalone="no"?>
<!DOCTYPE svg PUBLIC "-//W3C//DTD SVG 20010904//EN"
 "http://www.w3.org/TR/2001/REC-SVG-20010904/DTD/svg10.dtd">
<svg version="1.0" xmlns="http://www.w3.org/2000/svg"
 width="720.000000pt" height="330.000000pt" viewBox="0 0 720.000000 330.000000"
 preserveAspectRatio="xMidYMid meet">

<g transform="translate(0.000000,330.000000) scale(0.100000,-0.100000)"
fill="#000000" stroke="none">
<path d="M87 3293 c-4 -3 -7 -24 -7 -45 0 -27 -4 -37 -12 -32 -8 5 -9 -7 -5
-47 4 -30 7 -155 7 -279 0 -127 4 -219 9 -212 7 11 10 10 15 -3 8 -23 8 -27
-4 -20 -6 4 -10 -15 -10 -49 0 -59 -3 -62 -57 -57 -18 1 -23 -3 -23 -24 0 -14
6 -25 13 -25 8 0 7 -3 -3 -10 -20 -12 -8 -21 28 -22 31 -1 31 -1 36 -72 3 -39
8 -280 11 -535 3 -266 9 -469 14 -475 6 -7 6 -17 1 -26 -6 -8 -10 -26 -10 -40
0 -21 -8 -29 -43 -44 l-43 -18 -2 -59 c-1 -33 2 -58 6 -56 44 25 168 77 184
77 16 0 18 3 9 14 -11 13 -21 439 -36 1531 -3 226 -8 438 -11 473 -5 60 -7 62
-33 62 -15 0 -31 -3 -34 -7z m0 -340 c-3 -10 -5 -2 -5 17 0 19 2 27 5 18 2
-10 2 -26 0 -35z m0 -75 c-3 -7 -5 -2 -5 12 0 14 2 19 5 13 2 -7 2 -19 0 -25z
m13 -117 c0 -22 -4 -43 -10 -46 -5 -3 -9 12 -7 40 2 55 17 60 17 6z m-3 -178
c-3 -10 -5 -2 -5 17 0 19 2 27 5 18 2 -10 2 -26 0 -35z"/>
<path d="M224 3085 c0 -121 2 -169 3 -107 2 62 2 161 0 220 -1 59 -3 8 -3
-113z"/>
<path d="M858 3291 c-1 -6 -28 -23 -58 -39 -30 -16 -54 -35 -52 -41 1 -7 -1
-10 -6 -7 -17 10 -50 -33 -57 -73 -3 -21 -13 -47 -20 -58 -19 -24 -19 -54 -2
-47 11 4 12 -5 6 -43 -11 -67 -11 -173 0 -173 5 0 11 6 13 12 3 7 8 -22 11
-66 7 -85 25 -156 39 -156 4 0 8 12 9 28 l1 27 13 -30 c37 -79 24 -157 -25
-154 -66 4 -130 -2 -130 -12 0 -5 12 -9 28 -8 78 6 133 -1 138 -18 25 -75 70
-150 111 -189 27 -24 53 -44 59 -44 18 0 24 -25 24 -96 l0 -65 29 16 c29 15
30 14 70 -33 23 -26 41 -49 40 -52 0 -3 -19 -41 -42 -85 -36 -69 -54 -89 -127
-149 -147 -119 -354 -249 -480 -301 -144 -59 -177 -68 -184 -48 -3 8 -6 132
-6 276 0 281 -7 585 -20 842 -9 171 -5 -531 6 -1007 l6 -257 -48 -30 c-26 -17
-82 -47 -125 -68 l-78 -38 -1 -98 c0 -96 1 -98 21 -92 16 5 19 4 14 -5 -5 -8
-3 -11 6 -8 8 3 13 12 11 20 -1 9 6 18 15 21 10 3 34 15 53 26 19 11 48 22 63
26 15 3 25 10 22 15 -7 12 42 33 56 24 5 -3 9 2 9 11 0 11 5 15 16 11 8 -3 13
-2 10 3 -6 10 24 25 32 16 3 -3 0 -5 -7 -5 -7 0 -9 -9 -5 -25 5 -20 2 -25 -12
-26 -11 0 -14 -3 -6 -6 7 -3 12 -22 12 -46 0 -46 -16 -41 -23 8 -3 22 -4 17
-6 -17 0 -26 4 -50 10 -53 11 -7 3 -62 -13 -82 -6 -7 -5 -14 2 -18 7 -4 10
-45 8 -117 -3 -96 -1 -111 15 -123 16 -11 16 -14 2 -28 -8 -9 -15 -20 -15 -26
0 -6 -4 -11 -9 -11 -5 0 -18 -3 -28 -7 -16 -6 -16 -5 -4 10 7 9 17 14 22 11 5
-3 9 2 9 10 0 9 -4 16 -9 16 -5 0 -17 7 -26 16 -13 14 -14 19 -3 25 7 5 9 9 3
9 -5 0 -17 -5 -25 -10 -13 -9 -13 -10 0 -10 13 0 13 -1 0 -10 -15 -9 -13 -11
28 -22 9 -2 7 -9 -7 -25 -17 -18 -18 -23 -6 -33 8 -6 18 -9 24 -6 5 3 12 -1
15 -10 5 -12 1 -14 -17 -9 -12 3 -17 3 -11 -2 7 -6 7 -15 -1 -31 -11 -20 -14
-21 -25 -7 -7 8 -16 15 -21 15 -5 0 -1 -9 8 -20 10 -11 28 -20 40 -20 16 0 23
-6 23 -19 0 -30 -11 -52 -23 -44 -5 3 -7 1 -3 -5 8 -13 -5 -21 -39 -24 -24 -2
-25 -3 -8 -16 14 -10 14 -13 3 -12 -48 7 -58 0 -58 -34 0 -19 -3 -43 -6 -54
-4 -11 -2 -23 4 -27 6 -4 10 6 10 24 0 20 5 31 14 31 18 0 30 -17 17 -24 -5
-4 -12 0 -14 6 -3 7 -6 -6 -6 -28 -1 -39 1 -41 24 -36 20 3 25 0 25 -16 0 -12
-5 -24 -10 -27 -6 -4 -8 -11 -4 -16 4 -6 11 -6 19 1 8 7 19 9 25 5 5 -3 10 -2
10 4 0 5 -4 13 -10 16 -14 8 -13 35 1 35 6 0 9 -7 5 -15 -4 -12 0 -14 19 -9
16 4 25 2 25 -6 0 -6 -3 -9 -8 -6 -4 2 -7 -13 -7 -34 0 -26 3 -36 12 -33 7 3
13 1 13 -5 0 -6 -6 -13 -12 -15 -7 -3 215 -6 493 -6 l505 -1 12 97 c6 54 21
166 32 248 11 83 24 231 30 330 5 99 15 263 21 365 14 248 7 291 -67 406 -30
47 -58 93 -61 102 -6 15 -5 15 13 0 43 -37 204 -90 204 -67 0 5 -9 9 -20 9
-27 0 -125 40 -176 73 -31 19 -46 37 -57 70 l-15 44 55 -33 c77 -46 166 -74
238 -74 82 0 151 35 237 122 71 70 78 69 57 -7 -13 -47 -86 -119 -167 -167
-29 -17 -51 -33 -48 -35 10 -10 92 37 142 81 l51 45 -34 -84 c-37 -95 -40
-128 -18 -256 8 -49 22 -131 30 -182 17 -97 54 -254 82 -341 70 -222 198 -509
300 -676 l40 -65 396 -3 397 -2 6 40 7 40 166 3 c258 3 542 -3 586 -14 22 -6
57 -22 79 -36 21 -14 47 -23 57 -20 10 3 19 1 19 -4 0 -5 37 -9 83 -9 l84 0
-4 33 c-4 30 -3 31 11 13 9 -11 16 -26 16 -33 0 -7 4 -13 9 -13 4 0 -5 37 -22
83 -29 81 -29 83 -17 172 7 50 15 115 19 146 7 60 35 113 54 104 7 -4 3 1 -7
9 -16 13 -17 16 -4 16 8 0 22 -10 30 -22 11 -17 16 -19 23 -8 5 9 4 11 -3 6
-7 -4 -12 -2 -12 3 0 14 57 14 65 1 3 -5 18 -10 33 -9 l27 1 -29 12 c-27 12
-27 13 -7 19 11 3 19 2 16 -3 -8 -13 62 -22 111 -14 52 7 127 -18 210 -72 61
-40 76 -56 78 -88 0 -13 5 -22 10 -18 5 3 6 -2 3 -12 -4 -10 -3 -15 3 -11 6 3
10 -4 11 -17 0 -13 2 -30 4 -39 1 -9 -1 -23 -6 -30 -7 -12 -9 -12 -9 0 0 7 -6
11 -14 8 -8 -3 -22 2 -33 12 -21 20 -225 104 -296 121 -56 15 -71 10 -89 -26
-7 -15 -19 -30 -27 -32 -8 -3 -11 0 -7 6 3 6 0 13 -6 15 -8 3 -6 6 5 6 9 1 17
6 17 11 0 13 -3 13 -35 -2 -19 -8 -22 -14 -13 -21 9 -5 3 -7 -14 -3 -23 5 -26
3 -21 -11 5 -13 2 -15 -11 -10 -11 5 -15 3 -10 -5 5 -7 2 -9 -8 -5 -16 6 -53
-25 -42 -35 3 -3 6 -20 6 -37 1 -18 5 -34 10 -37 4 -3 3 -15 -4 -27 -6 -12 12
4 41 35 80 88 146 104 291 70 25 -6 77 -16 117 -22 82 -13 203 -67 227 -101
19 -28 21 -46 4 -31 -20 16 -157 62 -184 62 -43 0 -114 -22 -107 -33 3 -6 1
-7 -5 -3 -13 8 -96 -32 -132 -64 -14 -12 -20 -19 -13 -16 7 4 10 -1 9 -11 -2
-12 -11 -18 -29 -17 -16 1 -27 -4 -27 -12 0 -11 56 -13 300 -13 165 0 300 4
300 8 0 20 -149 201 -160 196 -3 -2 -5 22 -5 53 0 34 -7 71 -17 90 -23 44 -14
92 16 92 11 0 68 -7 126 -15 92 -13 123 -12 254 1 121 12 172 13 265 5 64 -6
157 -15 206 -20 101 -9 216 -6 288 9 65 14 67 13 67 -14 0 -32 -14 -42 -105
-71 -101 -33 -176 -40 -261 -25 -41 7 -189 14 -364 16 -185 2 -330 8 -388 17
-65 10 -92 11 -89 3 6 -20 110 -86 134 -86 13 0 23 -4 23 -10 0 -5 7 -10 17
-10 9 0 39 -6 67 -14 55 -16 219 -38 289 -39 23 -1 45 -6 49 -12 5 -7 8 -6 8
1 0 7 22 12 60 12 39 0 57 -4 53 -11 -4 -6 0 -8 11 -4 28 11 166 -27 166 -45
0 -4 -4 -10 -10 -13 -16 -10 -12 -25 8 -26 13 0 14 -2 2 -6 -8 -3 -26 -16 -40
-28 -14 -12 -32 -25 -40 -28 -10 -4 -8 -6 7 -6 12 -1 23 -7 26 -13 3 -10 7
-10 20 1 11 9 17 10 17 2 0 -7 40 -11 128 -11 l127 0 23 33 c26 39 28 53 7 61
-35 13 -8 125 43 179 87 92 347 147 472 99 39 -15 45 -22 53 -57 5 -22 6 -70
2 -107 -3 -38 -3 -99 1 -138 l7 -70 247 0 c189 0 250 3 253 13 4 9 6 9 6 0 1
-17 48 -17 55 0 5 9 7 9 12 0 4 -9 35 -13 103 -13 l98 0 1 30 c0 17 -4 28 -9
25 -5 -4 -9 -1 -9 4 0 6 5 11 10 11 6 0 10 7 10 16 0 11 -6 15 -19 11 -13 -3
-18 -1 -14 9 2 7 11 10 19 7 8 -3 14 1 14 10 0 8 -5 17 -11 19 -9 3 -9 10 0
26 12 22 15 242 3 242 -3 0 -14 -7 -24 -17 -17 -16 -17 -17 -1 -36 18 -20 18
-20 -9 -3 -31 20 -28 35 12 65 31 22 38 49 19 68 -8 8 -7 13 1 18 9 6 6 11 -9
19 -21 12 -21 12 -3 32 15 16 19 39 20 147 2 123 2 127 -18 127 -13 0 -18 4
-15 11 4 6 13 8 21 5 11 -4 14 4 14 33 0 22 -6 42 -12 44 -10 4 -10 6 0 6 8 1
12 17 12 46 0 36 -3 45 -17 45 -16 1 -16 2 2 16 16 12 17 16 6 23 -9 6 -10 11
-2 15 14 9 14 121 1 147 -7 12 -7 19 -1 19 14 0 11 293 -3 302 -8 6 -8 8 1 8
8 0 12 97 12 378 l1 379 -121 6 c-168 9 -261 9 -255 -2 3 -5 -4 -11 -15 -14
-12 -3 -19 -10 -15 -15 3 -5 -14 -27 -37 -50 -32 -31 -51 -42 -82 -45 l-40 -3
33 -8 c31 -8 40 -20 24 -30 -9 -5 -27 -81 -37 -159 -5 -35 -3 -48 8 -52 9 -4
13 -21 11 -58 -8 -141 -15 -200 -29 -226 -8 -16 -11 -32 -7 -36 4 -5 2 -5 -5
-2 -9 6 -26 -25 -35 -63 0 -3 -8 -10 -17 -17 -15 -11 -17 -15 -20 -49 -1 -9
-6 -12 -13 -8 -10 5 -10 4 -1 -6 9 -10 6 -18 -15 -36 -17 -16 -26 -37 -28 -62
-2 -20 -6 -56 -10 -79 -3 -23 -1 -65 5 -94 12 -54 7 -74 -10 -49 -8 11 -9 5
-5 -23 2 -20 1 -37 -3 -37 -4 0 -6 -29 -5 -65 1 -36 -3 -65 -7 -65 -5 0 -9 -7
-9 -16 0 -39 -30 18 -50 95 -52 204 -91 257 -245 333 -92 44 -104 53 -109 81
-4 20 -29 53 -71 95 -36 35 -72 77 -80 93 -20 38 -44 49 -104 49 -27 0 -53 5
-56 10 -4 6 -25 20 -48 31 -23 12 -44 23 -45 24 -2 2 5 16 16 32 10 15 34 52
52 81 18 28 38 52 46 52 8 0 11 -6 8 -15 -4 -9 1 -18 10 -21 21 -8 101 70 90
87 -4 8 -3 9 4 5 16 -10 30 29 54 154 11 58 26 113 35 122 8 9 18 41 22 70 5
39 10 52 21 51 13 -2 15 37 13 293 0 162 -4 298 -7 301 -3 4 -6 -91 -6 -210 0
-138 -4 -217 -10 -217 -14 0 -13 -3 -10 233 2 181 0 207 -13 207 -8 0 -18 -6
-20 -12 -3 -8 -6 -6 -6 5 -1 11 6 17 19 17 19 0 20 7 20 133 l0 132 -45 0
c-24 0 -50 -6 -57 -13 -23 -23 -38 -13 -38 23 l0 35 -70 0 -70 0 0 -181 c0
-161 -2 -180 -16 -175 -9 3 -18 6 -20 6 -2 0 -4 12 -4 26 0 14 4 23 10 19 6
-3 10 -1 10 4 0 6 -3 11 -7 11 -5 0 -9 30 -10 68 -1 45 1 61 7 47 8 -19 9 -19
9 3 1 12 -3 22 -9 22 -5 0 -7 15 -5 33 15 106 15 117 -3 117 -16 0 -18 -12
-17 -122 0 -68 -1 -144 -3 -169 l-4 -46 -71 -6 c-82 -5 -124 9 -131 46 -8 39
-2 217 8 207 4 -4 16 -6 25 -2 14 5 14 3 -1 -12 -26 -26 -22 -39 7 -20 33 21
31 57 -2 60 -30 2 -34 5 -28 14 3 6 11 10 16 10 6 0 7 -4 4 -10 -3 -5 9 0 28
13 46 30 24 43 -46 26 -38 -9 -52 -9 -55 0 -4 13 -42 15 -42 2 0 -5 6 -12 13
-14 10 -4 10 -6 0 -6 -10 -1 -13 -35 -13 -135 l0 -134 -30 -4 c-16 -3 -30 -1
-30 4 0 4 5 8 10 8 24 0 7 18 -22 24 -35 7 -48 -4 -48 -42 0 -13 -4 -20 -10
-17 -12 8 -13 102 -1 109 5 3 11 -4 15 -16 5 -22 6 -22 20 -3 15 20 15 19 16
-5 l1 -25 10 24 c8 19 6 27 -6 34 -43 24 -42 121 2 132 14 3 23 8 20 11 -5 5
-42 -3 -129 -28 l-38 -11 -1 -101 c-1 -56 0 -114 1 -130 2 -28 -33 -69 -82
-96 -24 -14 -26 1 -25 141 l2 124 42 20 c60 28 53 35 -14 13 -45 -15 -58 -17
-64 -6 -9 15 7 28 36 28 12 0 26 5 32 11 7 7 33 13 59 15 26 2 51 9 54 15 7
11 46 20 87 21 12 0 21 4 20 8 -1 4 1 7 4 7 3 -1 14 5 24 13 17 14 18 13 12
-2 -4 -12 -2 -15 9 -11 20 7 18 33 -3 33 -10 0 -52 -12 -93 -25 -41 -14 -76
-25 -77 -25 -2 0 -3 11 -3 25 0 34 -16 32 -23 -4 -5 -24 -15 -31 -64 -49 -111
-40 -104 -41 -98 22 4 51 3 56 -15 56 -19 0 -20 -7 -20 -265 0 -146 -3 -265
-7 -265 -5 0 -7 119 -5 265 l3 265 -48 0 -48 0 0 -415 c0 -228 3 -415 7 -415
4 0 3 -12 -2 -27 -5 -16 -8 -36 -7 -45 4 -21 17 -36 17 -20 0 7 4 12 10 12 11
0 50 -72 50 -92 0 -7 10 -18 22 -23 15 -7 29 -30 45 -75 25 -74 25 -74 23 35
0 44 4 95 9 113 12 39 88 158 122 189 33 30 146 89 128 66 -12 -15 -12 -16 3
-10 28 10 29 -7 4 -44 -23 -34 -42 -79 -32 -79 2 0 16 4 30 10 14 5 25 6 25 2
-3 -19 2 -32 12 -32 6 0 8 7 5 16 -4 10 -2 14 6 11 7 -2 21 0 30 4 10 6 19 5
23 -1 3 -6 -5 -14 -19 -20 -31 -11 -33 -16 -6 -16 11 0 20 4 20 9 0 4 4 5 10
2 10 -6 59 21 73 40 4 5 6 -1 5 -15 -2 -14 -7 -28 -13 -33 -6 -4 -3 -11 8 -18
9 -6 14 -16 11 -22 -5 -8 -3 -8 7 1 18 17 34 15 19 -3 -15 -18 -5 -35 23 -36
15 0 17 -2 7 -6 -8 -3 -25 -14 -38 -24 -12 -9 -31 -15 -42 -12 -16 4 -19 2
-14 -12 5 -13 3 -16 -7 -13 -8 3 -13 11 -11 18 2 7 -2 16 -9 20 -6 4 5 9 25
12 20 2 36 0 36 -5 0 -4 5 -5 11 -1 8 4 7 9 -2 15 -7 4 -17 5 -22 2 -13 -8
-59 6 -52 16 3 5 -1 12 -7 15 -9 3 -7 9 6 20 11 9 17 19 14 22 -10 9 -49 -6
-43 -17 9 -14 -3 -11 -32 9 -15 9 -24 12 -20 5 6 -9 -4 -8 -34 2 -81 29 -181
15 -218 -29 -16 -20 -4 -20 29 -1 39 22 180 17 180 -7 0 -5 -5 -6 -12 -2 -8 5
-9 1 -5 -12 7 -19 7 -19 -8 0 -19 25 -29 16 -11 -10 8 -10 26 -19 40 -19 28
-1 32 5 16 21 -8 8 -5 15 7 25 16 13 17 12 4 -3 -7 -10 -9 -18 -3 -18 14 0 33
25 25 33 -3 4 -1 7 6 7 6 0 14 -7 17 -15 4 -8 11 -12 17 -8 6 3 7 1 3 -5 -4
-6 -2 -20 4 -31 7 -14 7 -22 -2 -27 -6 -4 -8 -3 -5 2 3 5 -3 21 -14 34 l-19
25 10 -30 10 -30 -20 25 -20 25 0 -23 c0 -19 -4 -22 -20 -17 -11 4 -20 3 -19
-2 4 -22 -3 -22 -26 2 -19 18 -37 25 -63 25 -38 0 -82 -22 -82 -41 0 -6 10 -3
22 5 12 9 31 16 41 16 16 0 17 -2 3 -15 -8 -8 -14 -28 -13 -43 2 -23 7 -27 33
-28 17 -1 31 4 31 10 0 6 1 22 1 35 2 25 2 25 22 5 23 -23 40 -37 59 -49 11
-6 13 -4 8 8 -3 9 -3 27 2 39 8 21 8 21 15 -5 6 -27 -1 -77 -11 -77 -3 0 -11
7 -18 16 -10 15 -13 15 -28 -1 -9 -9 -16 -26 -16 -38 2 -21 2 -21 6 1 7 35 28
20 29 -20 1 -20 4 -41 8 -47 5 -7 -1 -11 -14 -11 -12 0 -18 -4 -15 -11 4 -6
14 -8 22 -5 12 5 13 2 7 -11 -4 -10 -8 -30 -8 -45 -1 -22 -5 -27 -18 -22 -10
3 -18 1 -18 -5 0 -6 10 -11 23 -12 21 -1 21 -1 -3 -8 l-25 -7 33 -16 c31 -16
32 -16 38 7 9 36 66 47 63 12 0 -9 -2 -9 -6 1 -9 22 -33 13 -33 -13 0 -26 -9
-29 -60 -25 -21 2 -22 0 -11 -14 12 -14 8 -16 -43 -16 -65 0 -69 -9 -31 -60
14 -19 25 -29 25 -24 0 6 -5 15 -12 22 -7 7 -8 12 -3 12 15 0 31 -13 43 -35 6
-11 12 -14 12 -7 0 17 20 15 20 -3 0 -18 27 -20 32 -3 3 8 9 5 16 -9 8 -14 18
-20 27 -17 8 4 13 9 11 13 -5 8 15 10 92 11 32 0 52 4 52 12 0 6 3 8 6 5 4 -3
15 5 26 18 11 14 24 22 29 19 6 -4 6 -11 -2 -20 -9 -11 -7 -14 15 -14 23 0 31
-9 27 -32 0 -5 6 -8 14 -8 8 0 15 -8 15 -17 0 -14 2 -15 13 -4 10 10 8 16 -10
28 -24 16 -30 33 -12 33 5 0 7 -5 3 -12 -4 -7 -3 -8 4 -4 18 11 15 16 -19 28
l-32 11 24 13 c34 19 39 17 39 -10 0 -35 26 -39 50 -8 l20 27 -11 -27 c-7 -16
-16 -28 -21 -28 -5 0 -6 -4 -3 -10 3 -5 1 -10 -4 -10 -6 0 -11 -6 -11 -14 0
-14 -28 -46 -72 -83 -26 -21 -26 -21 -44 -2 -16 18 -16 19 -1 13 9 -3 17 -1
17 4 0 6 -6 13 -12 15 -7 2 -1 3 13 1 24 -3 26 0 25 34 -1 41 -8 43 -93 26
-39 -9 -41 -10 -27 -29 12 -17 16 -17 24 -6 12 21 40 -4 35 -31 -7 -33 -22
-43 -40 -28 -14 11 -14 14 2 25 14 11 12 13 -19 17 -32 3 -35 2 -27 -13 5 -11
5 -20 0 -23 -5 -4 -11 -1 -13 6 -2 6 -10 8 -16 4 -8 -5 -3 -15 16 -31 15 -14
21 -25 15 -25 -7 0 -13 5 -13 10 0 6 -4 10 -10 10 -5 0 -10 -8 -10 -17 0 -15
-2 -16 -10 -3 -6 9 -5 17 1 21 6 4 4 9 -6 13 -25 9 -37 7 -29 -6 4 -6 3 -8 -4
-5 -5 4 -9 15 -7 25 2 9 4 20 4 23 1 7 36 20 64 24 31 4 32 15 1 16 l-29 1 25
9 c20 7 17 7 -15 4 -22 -2 -57 -7 -78 -11 -24 -4 -43 -2 -52 6 -10 9 -15 9
-15 1 0 -6 -7 -11 -15 -11 -8 0 -15 -5 -15 -11 0 -6 7 -8 16 -5 10 4 13 2 8
-6 -5 -7 0 -9 14 -6 12 4 20 2 17 -2 -3 -5 8 -11 25 -15 26 -6 29 -10 26 -36
-1 -16 -11 -36 -22 -44 -18 -14 -18 -15 6 -12 16 1 25 -3 25 -13 0 -11 12 -15
45 -13 33 1 39 -1 25 -7 -11 -5 -42 -9 -70 -9 -37 0 -45 3 -30 9 13 6 5 7 -25
3 -40 -4 -50 -2 -80 23 -46 39 -147 168 -165 210 -8 19 -21 75 -31 125 -9 49
-18 88 -21 86 -2 -3 0 -29 5 -58 6 -30 8 -56 6 -58 -2 -3 -16 6 -30 20 -26 23
-26 23 -15 2 6 -12 20 -28 30 -36 11 -7 29 -38 40 -68 12 -29 25 -61 30 -69 8
-11 -3 -20 -47 -41 -31 -15 -60 -25 -64 -23 -4 3 -5 -2 -2 -10 5 -14 10 -13
35 4 15 12 42 26 59 31 30 11 33 9 107 -65 71 -70 103 -90 180 -112 7 -2 10
-10 7 -19 -4 -11 -2 -14 9 -10 16 7 31 -31 16 -40 -10 -7 8 -57 24 -67 9 -6 8
-8 -2 -8 -8 0 -11 -6 -7 -16 3 -8 2 -12 -4 -9 -6 3 -13 -1 -16 -10 -6 -14 -8
-14 -25 1 -21 19 -24 13 -8 -17 6 -11 16 -18 24 -15 8 3 12 -2 10 -12 -2 -9
-4 -20 -4 -23 -1 -4 -11 -9 -23 -13 -19 -5 -20 -8 -8 -16 13 -8 13 -11 1 -22
-10 -10 -12 -10 -7 0 4 7 1 12 -7 12 -8 0 -21 8 -28 17 -8 9 -9 14 -4 11 6 -3
26 2 45 13 l35 18 -35 -4 c-27 -4 -29 -3 -10 3 17 5 21 10 12 16 -6 4 -15 5
-19 3 -5 -3 -9 8 -10 24 -1 16 3 29 8 29 15 0 2 50 -18 73 -25 27 -30 21 -23
-28 4 -27 3 -45 -3 -45 -5 0 -6 -7 -3 -16 3 -8 2 -12 -4 -9 -6 3 -10 -1 -10
-10 0 -9 -5 -13 -11 -10 -6 4 -8 14 -5 22 3 8 2 12 -2 9 -9 -5 -95 89 -125
134 -12 20 -14 35 -7 70 12 61 12 120 0 120 -5 0 -10 -9 -10 -20 0 -14 -6 -20
-17 -18 -16 3 -18 -5 -17 -58 1 -39 -2 -61 -10 -62 -6 0 -21 -3 -32 -7 -18 -6
-26 1 -48 42 -21 37 -25 52 -17 65 9 14 8 16 -4 12 -8 -4 -15 -10 -15 -16 0
-5 -4 -6 -10 -3 -6 4 -10 -6 -10 -23 0 -19 15 -48 45 -86 25 -32 45 -62 45
-67 0 -5 14 -24 30 -43 17 -19 26 -37 21 -40 -5 -4 -12 -2 -16 4 -4 6 -11 8
-16 4 -5 -3 -16 0 -24 6 -11 9 -15 9 -15 1 0 -6 -8 -11 -17 -10 -12 0 -13 2
-5 6 10 4 10 9 -3 23 -11 12 -13 20 -6 25 7 3 0 16 -17 30 -17 15 -31 20 -37
14 -13 -13 -28 -11 -19 3 4 7 3 8 -5 4 -17 -11 7 -39 26 -32 8 3 12 2 9 -2 -5
-9 22 -48 32 -45 4 2 7 -3 8 -10 0 -6 4 -20 9 -30 6 -14 10 -16 16 -6 6 10 12
10 31 1 13 -7 15 -10 6 -8 -20 6 -23 -5 -7 -21 16 -16 -147 39 -208 71 -61 30
-70 28 -17 -4 38 -24 39 -28 4 -35 -12 -2 -25 -7 -29 -10 -3 -4 7 -4 22 -1 48
8 159 -24 183 -53 59 -72 133 -145 140 -138 4 4 -20 36 -54 70 -65 66 -72 77
-47 77 10 0 15 -7 13 -17 -2 -10 2 -18 8 -18 6 0 34 -13 62 -28 63 -34 63 -37
25 -184 l-28 -105 -165 5 c-113 3 -181 10 -214 21 -29 9 -63 14 -81 10 l-32
-6 -6 65 c-10 103 -70 257 -100 257 -5 0 0 -12 11 -27 35 -51 80 -216 82 -300
0 -22 -23 -14 -69 22 -25 20 -49 34 -55 32 -6 -3 -30 11 -54 30 -23 19 -49 36
-57 37 -8 1 -18 5 -21 9 -15 15 -24 6 -14 -13 9 -16 8 -20 -5 -20 -9 0 -14 4
-11 9 3 5 0 11 -8 14 -8 3 -17 0 -20 -8 -6 -15 12 -23 61 -27 17 -1 31 -7 30
-13 -1 -5 4 -9 10 -8 7 2 12 0 11 -5 -1 -4 28 -37 64 -74 65 -65 88 -97 103
-147 l7 -24 -33 25 c-55 41 -101 62 -144 64 -22 1 -62 5 -90 8 -27 4 -42 3
-32 -2 15 -6 13 -9 -13 -19 -18 -7 -30 -8 -30 -1 0 5 -9 6 -20 3 -17 -5 -20
-2 -20 26 0 61 24 161 41 172 9 5 14 18 12 27 -7 26 53 137 103 190 44 47 117
89 188 109 37 10 40 8 70 -22 17 -18 39 -43 48 -57 9 -14 17 -20 17 -15 1 6
-17 33 -40 60 l-41 49 53 18 c28 10 63 15 78 13 l26 -5 -23 12 c-18 9 -31 9
-53 1 -33 -13 -40 -7 -29 23 10 25 131 114 157 114 13 0 15 2 5 9 -10 6 0 20
38 54 49 44 65 51 115 48 18 -1 17 1 -3 11 -33 17 -93 -17 -163 -89 -30 -31
-78 -72 -107 -90 -39 -25 -54 -42 -59 -63 -4 -25 -13 -32 -47 -40 -22 -6 -62
-20 -88 -30 -61 -26 -81 -25 -114 5 -14 13 -35 27 -45 30 -18 6 -19 22 -19
361 0 195 1 357 3 362 1 4 24 6 51 5 58 -3 56 5 -5 15 l-44 8 -3 529 c-1 291
-5 531 -7 534 -3 2 -8 1 -12 -3 -8 -8 -11 -436 -3 -436 3 0 5 -118 5 -263 l0
-262 -102 -3 -103 -3 0 -48 c0 -26 -3 -50 -6 -53 -3 -4 -5 -99 -4 -212 0 -136
-3 -206 -10 -206 -5 0 -10 4 -10 8 0 5 -35 7 -77 6 -43 -1 -244 -5 -448 -8
-203 -4 -489 -9 -635 -12 -282 -7 -316 -3 -510 55 l-55 16 125 5 c106 5 115 6
60 10 -36 3 81 5 260 5 179 0 535 2 793 3 l467 4 1 261 c1 144 1 422 0 617 0
195 -1 392 -1 438 l0 82 -35 0 -35 0 2 -59 c1 -33 -1 -64 -6 -68 -8 -9 -147
-8 -663 2 -327 7 -331 8 -337 29 -3 11 -6 38 -6 59 0 30 -4 37 -20 37 -18 0
-20 -7 -20 -55 l0 -56 -277 3 c-153 1 -320 4 -370 6 l-93 3 0 50 0 49 -100 0
c-99 0 -107 -3 -100 -35 1 -5 3 -79 5 -165 2 -85 7 -175 10 -200 10 -85 21
-908 11 -917 -2 -3 -14 -2 -25 2 -19 6 -20 15 -23 173 -2 92 -3 386 -3 654 l0
488 -28 0 -28 0 7 -140 c3 -77 3 -160 0 -185 -7 -46 -22 -59 -32 -27 -6 20
-21 53 -59 134 -30 66 -95 133 -143 149 -19 6 -39 23 -47 40 l-16 29 -353 0
c-211 0 -356 -4 -358 -9z m4648 -10 c-3 -5 -19 -11 -36 -13 -33 -5 -29 7 5 15
32 8 36 7 31 -2z m-95 -88 c1 -38 1 -71 1 -74 -1 -4 3 -21 8 -38 5 -20 5 -33
-2 -37 -5 -4 -8 -17 -5 -31 3 -18 0 -23 -12 -21 -13 3 -16 19 -17 88 -2 103 6
180 17 180 5 0 10 -30 10 -67z m-220 -177 c8 4 9 -1 4 -16 -4 -13 -3 -25 4
-30 7 -4 2 -11 -14 -18 l-25 -12 0 114 c0 133 14 166 18 42 2 -58 6 -85 13
-80z m-2340 121 c4 -5 12 -6 18 -3 13 9 12 32 17 -321 2 -155 0 -284 -5 -287
-5 -3 -82 -6 -172 -8 -90 -1 -172 -5 -181 -10 -11 -5 -26 -4 -38 2 -15 8 -20
8 -20 -2 0 -11 29 -13 128 -13 132 1 153 -2 131 -16 -9 -5 13 -9 56 -10 39 -1
77 -2 85 -3 13 -1 16 -38 20 -246 3 -135 8 -225 11 -200 5 42 6 40 7 -20 1
-39 -2 -60 -7 -52 -9 15 -17 15 -42 1 -9 -5 -86 -9 -170 -10 -95 0 -147 -4
-138 -10 9 -5 -15 -9 -68 -9 -45 0 -84 4 -87 8 -3 5 -21 9 -41 10 -24 1 -34
-2 -29 -10 5 -8 3 -8 -7 -2 -14 9 -24 10 -126 13 -40 1 -53 5 -53 16 0 8 7 15
15 15 9 0 15 9 15 23 1 19 2 20 10 5 6 -10 18 -14 30 -11 11 3 27 0 35 -7 13
-10 19 -10 33 4 23 20 36 21 28 1 -6 -17 29 -22 39 -5 3 6 -2 10 -12 10 -15 1
-15 2 -3 9 8 5 40 5 70 1 36 -5 57 -4 62 4 4 6 11 7 15 2 4 -5 2 -11 -4 -13
-7 -3 -13 -9 -13 -14 0 -5 69 -9 158 -9 146 0 160 2 177 20 18 20 41 28 31 11
-4 -5 2 -8 11 -7 14 2 19 14 21 56 3 52 3 52 -22 48 -20 -4 -26 -1 -26 12 0
10 7 23 16 31 13 10 17 10 25 -2 7 -11 9 -9 9 9 0 22 -14 30 -25 12 -3 -5 -13
-6 -21 -3 -12 4 -9 10 13 24 19 13 23 19 11 19 -11 0 -18 10 -20 28 -2 21 -9
28 -32 30 -16 2 -33 -1 -39 -7 -8 -8 -8 -11 1 -11 7 0 12 -9 12 -20 0 -14 -7
-20 -21 -20 -17 0 -19 -4 -13 -22 7 -23 6 -23 -15 -4 -14 13 -19 26 -15 42 3
12 1 31 -5 41 -9 16 -10 15 -11 -9 0 -25 -3 -27 -35 -26 -19 1 -35 4 -35 8 0
11 -34 8 -49 -4 -11 -8 -13 -8 -7 2 4 6 2 12 -3 12 -6 0 -11 -6 -11 -12 0 -7
-5 -5 -11 5 -5 9 -17 17 -24 17 -19 0 -19 -16 0 -24 12 -4 13 -11 5 -31 -13
-34 -13 -35 5 -35 17 0 17 -2 9 -23 -5 -13 -10 -13 -37 -2 -18 7 -38 10 -44 8
-7 -3 -13 0 -13 6 0 6 -4 11 -10 11 -19 0 -10 -27 17 -54 20 -20 23 -30 15
-38 -16 -16 -92 9 -92 30 0 13 -2 13 -17 0 -18 -16 -69 -18 -92 -4 -7 5 -9 16
-5 28 4 15 3 18 -6 13 -9 -6 -9 -3 0 14 6 12 18 25 26 28 16 6 19 23 3 23 -16
0 -36 24 -31 38 2 6 12 12 23 12 10 0 19 5 19 10 0 6 -14 10 -31 10 -26 0 -29
3 -24 20 7 21 -9 28 -20 9 -4 -6 -13 -8 -21 -5 -9 3 -14 -1 -15 -12 0 -9 -7 1
-15 23 -9 23 -14 65 -12 100 l3 60 60 5 c38 3 55 8 47 13 -10 7 -10 12 4 22
16 11 10 14 -46 21 -62 9 -65 10 -62 34 2 14 5 26 7 28 1 1 21 -4 44 -12 37
-12 43 -12 54 3 18 24 152 27 166 3 8 -15 11 -13 21 12 8 23 8 31 -2 37 -12 8
-11 9 36 23 7 2 20 -4 29 -15 22 -25 40 -25 32 1 -4 12 -2 20 5 20 6 0 2 10
-10 22 -11 12 -20 32 -20 45 0 13 -6 23 -14 23 -8 0 -16 5 -18 11 -5 15 -78
-21 -78 -39 0 -9 -6 -12 -15 -8 -22 8 -70 -15 -53 -25 8 -5 -2 -8 -25 -7 -20
1 -42 7 -48 15 -14 16 3 18 32 3 15 -8 19 -7 19 4 0 10 -6 13 -17 9 -12 -5
-15 -2 -10 10 4 11 -1 21 -16 29 -12 6 -23 11 -24 10 -2 -1 -10 -2 -18 -2 -12
0 -12 5 0 40 11 30 11 40 2 40 -7 1 4 10 23 21 19 11 27 18 18 15 -10 -3 -18
-2 -18 2 0 4 -13 13 -30 20 -29 13 -44 40 -16 29 7 -3 18 -1 23 4 7 7 16 5 26
-5 17 -17 47 -22 47 -7 0 12 -58 71 -70 71 -6 0 -10 -8 -10 -19 0 -12 -9 -20
-27 -24 -46 -9 -54 7 -51 102 l3 86 55 -2 c30 -1 46 1 36 4 -15 4 -16 7 -5 13
19 12 612 0 620 -13z m2386 -9 c-3 -7 -5 -2 -5 12 0 14 2 19 5 13 2 -7 2 -19
0 -25z m-1802 2 c242 -4 447 -10 455 -12 17 -4 27 -29 30 -78 l2 -35 8 30 c4
17 9 -75 10 -210 2 -248 1 -287 -7 -295 -7 -7 -952 -12 -980 -5 -18 4 -23 12
-22 38 1 30 2 30 8 7 7 -25 7 -25 134 -25 92 0 127 3 127 12 0 6 5 15 12 19 8
5 9 0 6 -14 -6 -20 -2 -22 33 -22 24 0 39 5 39 13 0 9 2 9 9 -1 5 -9 26 -12
66 -10 57 3 59 4 62 33 2 17 10 55 18 85 8 30 12 39 10 20 -4 -33 -4 -34 10
-15 33 43 47 57 53 50 3 -3 1 -10 -7 -14 -12 -8 -24 -25 -52 -78 -6 -12 -9
-33 -5 -48 6 -23 9 -25 19 -13 18 21 101 72 92 56 -6 -10 -5 -11 6 0 7 6 19
12 27 12 12 0 12 -3 2 -15 -7 -9 -10 -19 -6 -22 4 -4 11 -2 15 6 7 10 14 10
40 -3 17 -9 31 -14 31 -11 0 3 10 -3 22 -15 18 -17 35 -20 104 -20 l82 0 1
133 1 134 -43 -2 c-43 -1 -97 -22 -97 -37 0 -4 7 -8 15 -8 8 0 15 -4 15 -10 0
-5 8 -10 18 -11 15 0 15 -1 -2 -8 -23 -9 -64 8 -69 29 -2 8 3 23 11 33 13 15
13 17 -1 17 -9 0 -18 -4 -21 -8 -7 -11 -66 -3 -66 9 0 5 -16 6 -36 3 -39 -6
-39 -6 -2 49 11 15 15 27 10 27 -5 0 -12 9 -15 20 -8 30 -33 34 -58 11 -13
-12 -33 -21 -45 -21 -13 0 -24 -8 -27 -19 -3 -14 -11 -18 -26 -14 -12 3 -21
10 -21 15 0 5 -5 6 -12 2 -6 -4 -17 1 -24 11 -12 17 -15 17 -39 1 -14 -9 -25
-23 -25 -30 0 -18 -30 -32 -71 -35 -36 -2 -10 -19 41 -26 49 -7 58 -17 41 -43
-6 -11 -10 -10 -15 3 -5 14 -9 15 -20 5 -11 -9 -20 -9 -37 0 -17 10 -23 9 -30
-1 -6 -10 -3 -15 10 -17 11 -2 22 -10 25 -17 3 -8 2 -14 -2 -14 -18 3 -32 -2
-32 -11 0 -5 7 -10 15 -10 8 0 15 -3 15 -6 0 -3 -7 -12 -15 -20 -8 -9 -15 -12
-15 -8 0 3 -6 2 -13 -4 -18 -15 -86 -10 -80 6 3 7 16 15 29 18 13 3 24 11 24
16 0 6 -11 7 -25 4 -19 -5 -23 -3 -19 9 5 11 2 13 -9 9 -9 -3 -17 -15 -19 -27
-4 -26 -26 -34 -35 -11 -4 10 0 22 10 29 19 13 23 35 7 35 -5 0 -10 7 -10 15
0 8 -4 15 -9 15 -5 0 -12 8 -14 18 -4 13 -5 11 -6 -5 -1 -14 -7 -23 -16 -23
-9 0 -18 -7 -21 -15 -3 -8 -19 -21 -35 -29 -27 -13 -29 -13 -29 4 0 28 -21 36
-37 15 -11 -16 -13 9 -13 169 0 200 3 215 50 215 14 0 223 -4 465 -9z m1558
-21 c3 -11 5 -72 4 -135 -2 -64 1 -118 5 -120 9 -6 -12 -54 -24 -54 -4 0 -8
74 -8 165 0 149 8 201 23 144z m-3144 -189 c10 0 18 -119 25 -332 2 -73 0
-128 -5 -128 -5 0 -9 -10 -8 -22 0 -22 1 -22 9 -3 5 12 9 -62 9 -187 1 -115
-3 -208 -7 -208 -5 0 -19 12 -33 26 -26 28 -89 64 -112 64 -19 0 -27 52 -20
129 6 58 8 63 38 75 22 10 37 26 48 54 9 23 26 46 38 53 16 8 18 13 9 19 -9 6
-11 25 -6 72 8 75 -7 152 -34 171 -17 12 -18 22 -9 117 5 58 9 113 9 124 1 17
2 17 21 -3 11 -11 24 -21 28 -21z m337 -30 c20 0 29 -27 15 -44 -9 -11 -9 -15
0 -18 18 -6 1 -28 -20 -28 -15 0 -19 8 -19 44 -1 24 -2 48 -3 52 -3 19 4 28 8
12 2 -10 11 -18 19 -18z m1420 1 c-7 -11 -56 -21 -56 -10 0 4 8 10 18 12 30 8
43 7 38 -2z m2301 -37 c-3 -3 -12 -4 -19 -1 -8 3 -5 6 6 6 11 1 17 -2 13 -5z
m-2412 -24 c-3 -5 -13 -10 -21 -10 -8 0 -12 5 -9 10 3 6 13 10 21 10 8 0 12
-4 9 -10z m2465 0 c0 -5 -5 -10 -11 -10 -5 0 -7 5 -4 10 3 6 8 10 11 10 2 0 4
-4 4 -10z m-5004 -63 c0 -28 4 -68 8 -88 7 -33 5 -37 -33 -62 -56 -37 -57 -67
-1 -35 52 30 68 13 38 -39 -24 -40 -19 -56 6 -18 15 23 45 38 31 15 -3 -6 1
-7 9 -4 10 4 16 1 16 -10 0 -10 -5 -13 -17 -9 -15 6 -16 4 -6 -9 16 -18 7 -28
-24 -28 -19 0 -23 -4 -19 -17 3 -10 15 -56 26 -103 23 -93 61 -202 86 -253 9
-17 64 -78 122 -134 111 -108 116 -131 14 -63 -99 66 -188 164 -231 254 -21
43 -40 73 -43 65 -8 -24 -82 46 -116 110 -32 59 -53 151 -35 151 5 0 19 -10
30 -22 23 -26 83 -130 83 -144 -1 -5 -8 5 -17 21 -19 36 -53 75 -66 75 -10 0
27 -48 81 -106 17 -19 32 -42 33 -52 0 -9 3 -12 5 -6 3 6 -5 36 -17 65 -59
149 -85 299 -59 339 8 12 10 11 10 -7 0 -33 17 -37 25 -5 6 26 56 172 59 172
0 0 1 -24 2 -53z m2624 38 c0 -8 -54 -54 -59 -50 -6 6 39 55 51 55 4 0 8 -2 8
-5z m80 -15 c0 -11 -28 -20 -43 -14 -9 3 -18 -9 -27 -35 -12 -36 -52 -72 -66
-59 -7 7 10 42 41 83 18 24 31 31 59 32 20 1 36 -3 36 -7z m-1480 -10 c0 -5
-4 -10 -10 -10 -5 0 -10 5 -10 10 0 6 5 10 10 10 6 0 10 -4 10 -10z m1680 -14
c0 -3 -4 -8 -10 -11 -5 -3 -10 -1 -10 4 0 6 5 11 10 11 6 0 10 -2 10 -4z
m-1690 -34 c0 -13 2 -13 16 4 13 16 15 16 10 2 -3 -10 -1 -18 4 -18 6 0 10 5
10 10 0 6 8 10 18 9 10 0 12 -3 5 -6 -7 -2 -13 -10 -13 -17 0 -25 -32 -76 -47
-76 -12 0 -13 3 -4 14 9 10 8 15 -4 20 -10 3 -15 19 -15 46 0 25 4 39 10 35 6
-3 10 -14 10 -23z m900 8 c0 -11 -7 -20 -15 -20 -15 0 -21 21 -8 33 12 13 23
7 23 -13z m-587 4 c3 -4 1 -16 -5 -27 -10 -20 -11 -20 -24 -2 -8 10 -14 22
-14 27 0 9 34 11 43 2z m494 -34 l23 0 -20 -20 c-11 -11 -20 -27 -20 -35 0 -7
-6 -18 -14 -22 -7 -4 -16 -15 -18 -23 -3 -8 -5 10 -3 40 5 90 4 85 17 72 7 -7
22 -12 35 -12z m843 -3 c0 -7 -7 -21 -15 -31 -11 -15 -17 -16 -28 -7 -8 6 -21
9 -30 5 -10 -4 -15 0 -14 13 2 24 9 28 51 30 22 1 36 -3 36 -10z m1800 -7 c0
-5 -5 -10 -11 -10 -5 0 -7 5 -4 10 3 6 8 10 11 10 2 0 4 -4 4 -10z m-1986 -24
c-4 -10 -13 -15 -21 -12 -16 7 -63 -15 -82 -38 -8 -9 -18 -16 -24 -16 -21 0
30 44 78 66 54 25 59 25 49 0z m1844 -5 c-7 -12 -16 -21 -21 -21 -4 0 0 11 9
25 20 30 31 26 12 -4z m-2090 -17 c-4 -3 -12 5 -18 18 -12 22 -12 22 6 6 10
-10 15 -20 12 -24z m490 18 c2 -7 -2 -10 -12 -6 -10 4 -16 1 -16 -7 0 -10 -3
-10 -11 -2 -6 6 -8 16 -4 23 9 14 37 9 43 -8z m1762 -39 c0 -15 -6 -23 -16
-23 -13 0 -14 3 -5 14 8 10 9 16 1 21 -5 3 -10 1 -10 -6 0 -7 -3 -10 -6 -7 -3
3 0 15 7 27 15 23 29 11 29 -26z m-1950 27 c0 -5 -6 -10 -14 -10 -8 0 -18 5
-21 10 -3 6 3 10 14 10 12 0 21 -4 21 -10z m1630 -10 c0 -5 -5 -10 -11 -10 -5
0 -7 5 -4 10 3 6 8 10 11 10 2 0 4 -4 4 -10z m267 -12 c-3 -8 -6 -5 -6 6 -1
11 2 17 5 13 3 -3 4 -12 1 -19z m-4155 -45 c13 -16 -5 -17 -33 -3 -18 10 -18
12 -1 38 l17 26 3 -24 c2 -14 9 -31 14 -37z m18 31 c0 -8 -4 -12 -10 -9 -5 3
-10 10 -10 16 0 5 5 9 10 9 6 0 10 -7 10 -16z m90 -10 c0 -8 -4 -14 -8 -14 -4
0 -8 9 -8 19 0 11 4 17 8 15 4 -3 8 -12 8 -20z m3760 11 c11 -13 10 -14 -4 -9
-9 3 -16 10 -16 15 0 13 6 11 20 -6z m-2180 1 c0 -2 -7 -9 -15 -16 -12 -10
-15 -10 -15 4 0 9 7 16 15 16 8 0 15 -2 15 -4z m-60 -26 c0 -5 -7 -10 -15 -10
-8 0 -15 5 -15 10 0 6 7 10 15 10 8 0 15 -4 15 -10z m2370 6 c0 -2 -8 -10 -17
-17 -16 -13 -17 -12 -4 4 13 16 21 21 21 13z m27 -31 c0 -8 -4 -12 -9 -9 -5 3
-6 10 -3 15 9 13 12 11 12 -6z m89 -41 c-17 -30 -21 -44 -12 -44 8 0 19 -6 25
-14 10 -11 8 -16 -9 -21 -11 -3 -18 -10 -15 -15 9 -14 -33 -22 -55 -10 -23 12
-28 35 -5 27 8 -4 17 -2 21 4 3 6 13 8 21 4 13 -5 14 -3 3 10 -11 13 -15 13
-21 3 -6 -9 -9 -9 -9 -1 0 6 5 15 10 18 6 4 8 10 5 15 -3 5 6 17 20 28 13 11
21 22 18 26 -3 3 -1 6 6 6 7 0 9 5 5 12 -4 7 -3 8 5 4 9 -6 5 -20 -13 -52z
m108 1 c-4 -24 -3 -26 5 -10 8 16 10 17 10 3 1 -9 5 -18 11 -20 5 -1 11 -14
12 -28 2 -18 -1 -24 -13 -22 -9 1 -19 -4 -23 -13 -3 -8 -13 -15 -23 -14 -16 0
-16 2 2 10 16 7 14 9 -12 6 -23 -3 -33 1 -33 10 0 8 5 11 13 8 6 -4 3 1 -7 9
-19 15 -19 16 -1 16 18 0 18 0 0 14 -18 13 -18 15 -2 30 20 21 22 32 5 39 -9
4 -10 6 -1 6 6 1 18 -6 27 -14 21 -21 28 -19 21 8 -5 16 -4 18 4 7 5 -8 8 -28
5 -45z m-4443 -56 c5 -43 15 -79 24 -90 16 -16 16 -19 -2 -43 -10 -14 -21 -26
-24 -26 -3 0 -9 47 -13 105 -4 58 -11 118 -17 133 -10 26 -9 26 7 10 12 -12
20 -42 25 -89z m4213 86 c-4 -8 -11 -12 -16 -9 -6 4 -5 10 3 15 19 12 19 11
13 -6z m-35 -12 c-3 -32 1 -44 11 -38 6 4 7 12 4 18 -4 7 -4 9 1 5 4 -4 15 -2
24 5 14 10 14 10 4 -4 -7 -9 -11 -19 -8 -22 3 -4 2 -5 -1 -2 -4 2 -15 -6 -25
-18 l-18 -22 -1 22 c0 17 -4 21 -17 17 -14 -5 -15 -4 -4 4 8 6 10 15 6 22 -5
9 -4 11 3 6 7 -4 12 -1 12 8 0 9 3 16 6 16 3 0 4 -8 3 -17z m191 -8 c-7 -9
-15 -13 -17 -11 -7 7 7 26 19 26 6 0 6 -6 -2 -15z m-4470 -23 c0 -15 -2 -15
-10 -2 -13 20 -13 33 0 25 6 -3 10 -14 10 -23z m2750 -23 l45 -6 -50 -3 c-48
-3 -49 -3 -10 -7 83 -7 83 -7 92 -76 4 -34 7 -70 6 -79 -4 -29 6 -20 16 15 8
27 9 20 9 -43 0 -41 -3 -127 -7 -191 -5 -92 -10 -120 -25 -134 -20 -20 -55
-22 -678 -28 l-326 -4 -6 30 c-3 16 -6 45 -6 63 0 19 -4 34 -10 34 -5 0 -10
10 -10 22 0 21 0 21 16 2 15 -19 16 -19 9 1 -3 10 -6 58 -5 105 0 47 1 126 1
176 0 61 4 95 12 102 7 5 136 12 291 16 154 3 282 8 285 11 7 8 291 3 351 -6z
m997 -91 c-3 -7 -5 -2 -5 12 0 14 2 19 5 13 2 -7 2 -19 0 -25z m828 12 c3 -6
-1 -7 -9 -4 -18 7 -21 14 -7 14 6 0 13 -4 16 -10z m47 -4 c6 4 8 2 5 -3 -4 -6
0 -16 8 -23 8 -7 15 -18 15 -25 0 -7 -14 0 -31 16 -19 17 -28 33 -23 41 6 9 9
9 12 0 2 -7 9 -9 14 -6z m-83 -55 c20 -13 -2 -22 -39 -15 -22 5 -28 9 -18 15
17 11 39 11 57 0z m-89 -5 c0 -2 -9 -6 -20 -9 -11 -3 -18 -1 -14 4 5 9 34 13
34 5z m145 -14 c-3 -3 -11 0 -18 7 -9 10 -8 11 6 5 10 -3 15 -9 12 -12z m75
-5 c0 -8 -7 -14 -15 -14 -11 0 -12 4 -4 14 6 7 13 13 15 13 2 0 4 -6 4 -13z
m-410 -29 c0 -5 -9 -4 -20 2 -11 6 -20 12 -20 14 0 2 9 2 20 -1 11 -3 20 -9
20 -15z m332 4 c-10 -3 -10 -7 -1 -18 10 -12 9 -13 -5 -8 -18 7 -18 7 -10 28
3 9 11 13 17 9 8 -5 7 -8 -1 -11z m-149 -12 c3 -13 1 -18 -6 -13 -6 4 -8 -2
-4 -16 5 -19 3 -20 -10 -9 -14 11 -15 10 -9 -10 6 -17 4 -21 -8 -16 -23 9 -20
43 7 65 12 10 23 18 23 19 1 0 4 -9 7 -20z m115 -21 c33 -29 39 -55 7 -29 -17
14 -17 14 -33 -15 -6 -11 -12 -15 -12 -8 0 7 -7 10 -15 7 -8 -4 -12 -10 -9
-15 3 -5 -2 -6 -11 -3 -14 6 -13 9 4 26 12 10 21 30 21 43 0 32 8 31 48 -6z
m-219 -13 c-2 -19 0 -38 4 -42 4 -4 -1 -13 -11 -21 -13 -11 -14 -16 -4 -20 10
-4 9 -8 -5 -19 -17 -13 -17 -13 0 -14 24 0 16 -24 -9 -29 -10 -2 -22 -8 -25
-13 -4 -6 -10 0 -14 12 -5 14 -2 25 6 30 10 7 10 11 0 24 -10 12 -10 16 -2 16
7 0 12 10 11 23 -5 58 0 76 23 80 12 2 23 5 25 6 2 0 2 -15 1 -33z m311 13 c0
-11 -4 -18 -10 -14 -5 3 -7 12 -3 20 7 21 13 19 13 -6z m-405 -44 c-4 -43 -2
-54 8 -49 9 6 9 4 -1 -8 -17 -21 -18 -83 -2 -103 8 -10 9 -15 1 -15 -6 0 -11
5 -11 11 0 6 -9 9 -20 6 -11 -3 -20 0 -20 5 0 6 -7 5 -17 -3 -15 -11 -16 -11
-5 1 6 8 12 24 12 37 0 29 21 76 38 87 9 5 10 11 4 15 -11 7 -4 71 9 71 4 0 6
-25 4 -55z m181 -29 c8 -8 14 -19 14 -23 0 -5 12 -14 28 -20 l27 -11 -32 -1
c-18 -1 -33 4 -33 9 0 6 -9 10 -20 10 -11 0 -20 5 -20 10 0 6 5 10 10 10 6 0
10 4 10 9 0 5 -10 7 -22 3 -14 -3 -19 -2 -14 6 10 16 34 15 52 -2z m29 3 c11
-16 1 -19 -13 -3 -7 8 -8 14 -3 14 5 0 13 -5 16 -11z m-4172 -45 c-42 -20 -65
-24 -115 -22 l-63 3 95 22 c124 28 147 27 83 -3z m4384 1 c0 -20 -4 -19 -17 5
-8 15 -8 18 3 14 8 -3 14 -11 14 -19z m-3115 -25 c-2 -23 -17 -40 -35 -40 -6
0 -5 44 2 68 1 2 9 2 19 0 11 -3 16 -12 14 -28z m2851 18 c15 -7 27 -16 27
-20 0 -5 7 -8 16 -8 8 0 12 -4 9 -10 -4 -6 -13 -5 -25 2 -14 9 -22 9 -34 -1
-20 -17 -41 -5 -25 15 8 10 8 14 0 14 -6 0 -11 5 -11 10 0 13 10 13 43 -2z
m197 2 c12 -8 11 -10 -7 -10 -13 0 -23 5 -23 10 0 13 11 13 30 0z m43 -37 c-7
-2 -19 -2 -25 0 -7 3 -2 5 12 5 14 0 19 -2 13 -5z m-152 -26 c-10 -9 -11 -8
-5 6 3 10 9 15 12 12 3 -3 0 -11 -7 -18z m-3454 -19 c-3 -8 -6 -5 -6 6 -1 11
2 17 5 13 3 -3 4 -12 1 -19z m53 8 c0 -18 -17 -29 -30 -21 -8 5 -7 11 1 21 15
18 29 18 29 0z m3450 10 c0 -11 -19 -15 -25 -6 -3 5 1 10 9 10 9 0 16 -2 16
-4z m-4650 -16 c0 -5 -5 -10 -11 -10 -5 0 -7 5 -4 10 3 6 8 10 11 10 2 0 4 -4
4 -10z m4591 -27 c37 2 44 -1 41 -15 -2 -11 3 -18 12 -18 10 0 13 -6 9 -16 -3
-9 0 -20 8 -24 22 -14 -36 -58 -75 -56 -17 1 -30 6 -28 11 2 6 17 8 34 7 29
-3 31 -2 18 13 -11 14 -11 18 -1 25 18 10 5 31 -14 23 -8 -3 -15 0 -15 6 0 6
5 11 10 11 6 0 10 7 10 15 0 9 -6 12 -16 8 -17 -6 -94 16 -94 28 0 16 26 15
41 -2 11 -13 28 -18 60 -16z m-157 15 c-3 -4 4 -8 16 -8 30 0 20 -25 -11 -26
-35 -2 -47 5 -44 24 2 9 4 17 4 17 10 5 38 -2 35 -7z m-74 -24 c0 -2 -7 -4
-15 -4 -8 0 -15 4 -15 10 0 5 7 7 15 4 8 -4 15 -8 15 -10z m320 -4 c0 -5 -2
-10 -4 -10 -3 0 -8 5 -11 10 -3 6 -1 10 4 10 6 0 11 -4 11 -10z m30 -5 c0 -8
-4 -15 -10 -15 -5 0 -10 7 -10 15 0 8 5 15 10 15 6 0 10 -7 10 -15z m-275 -15
c-3 -5 -12 -10 -18 -10 -7 0 -6 4 3 10 19 12 23 12 15 0z m131 -19 c-3 -5 -17
-11 -30 -13 -17 -4 -23 -1 -19 9 3 7 16 13 30 13 13 0 22 -4 19 -9z m-3296 -5
c0 -3 -4 -8 -10 -11 -5 -3 -10 -1 -10 4 0 6 5 11 10 11 6 0 10 -2 10 -4z
m3447 -16 c-3 -10 -1 -20 4 -22 6 -2 3 -12 -6 -23 -15 -20 -15 -20 -9 0 5 19
5 19 -9 2 -14 -17 -15 -15 -14 19 1 20 3 32 5 25 2 -6 8 -11 14 -11 6 0 8 7 4
15 -3 8 0 15 5 15 6 0 9 -9 6 -20z m41 -4 c-7 -8 -15 -12 -17 -11 -5 6 10 25
20 25 5 0 4 -6 -3 -14z m-338 -8 c0 -6 10 -18 23 -29 12 -10 16 -18 10 -19 -7
0 -13 3 -13 8 0 4 -22 6 -48 6 -60 -2 -103 6 -96 17 2 5 18 7 34 5 30 -3 42 8
18 17 -7 2 6 4 30 4 23 0 42 -4 42 -9z m-3440 -8 c0 -5 -5 -10 -11 -10 -5 0
-7 5 -4 10 3 6 8 10 11 10 2 0 4 -4 4 -10z m4694 -5 c3 -8 1 -15 -4 -15 -6 0
-10 7 -10 15 0 8 2 15 4 15 2 0 6 -7 10 -15z m-1134 -32 c0 -7 -4 -13 -10 -13
-5 0 -10 12 -10 28 0 21 2 24 10 12 5 -8 10 -21 10 -27z m297 5 c-3 -8 -6 -5
-6 6 -1 11 2 17 5 13 3 -3 4 -12 1 -19z m-331 -1 c4 -4 -2 -7 -14 -7 -12 0
-22 4 -22 9 0 10 26 9 36 -2z m-67 -23 c39 -5 42 -7 28 -21 -18 -19 -90 -28
-149 -19 -47 7 -112 41 -104 54 4 7 105 1 225 -14z m-4131 -72 c16 -21 15 -32
-2 -32 -18 0 -32 -80 -18 -106 10 -20 6 -44 -8 -44 -14 0 -70 51 -70 63 0 8 3
7 9 -2 27 -42 10 48 -33 178 -8 23 -7 23 50 -9 33 -18 65 -40 72 -48z m1039
62 c-3 -3 -12 -4 -19 -1 -8 3 -5 6 6 6 11 1 17 -2 13 -5z m1673 -123 c0 -10
-6 -24 -14 -31 -19 -15 -265 -25 -637 -25 -268 0 -288 -1 -283 -17 3 -10 0
-27 -6 -39 -7 -12 -7 -19 -2 -15 6 4 10 -14 11 -47 3 -297 6 -280 -49 -289
-53 -7 411 0 785 12 236 8 262 7 285 -8 25 -17 25 -17 -45 -24 -38 -4 -167
-12 -285 -18 -118 -7 -242 -15 -275 -18 l-60 -7 -1 -95 -1 -95 7 75 c4 45 6
-18 6 -160 0 -135 -2 -171 -3 -85 l-3 150 -78 -7 c-140 -12 -278 -9 -328 8
-39 13 -48 13 -56 2 -8 -10 -9 -9 -5 3 3 9 1 21 -5 27 -6 6 15 0 48 -13 32
-13 62 -21 67 -18 5 3 -14 13 -42 23 -83 28 -94 43 -87 117 7 68 13 61 -59 76
-14 3 -11 5 10 7 l30 2 -30 7 c-28 6 -32 13 -72 131 -54 158 -89 229 -153 308
l-51 62 148 1 c387 4 1219 15 1226 17 4 1 7 -6 7 -17z m-2816 -33 c-4 -6 -10
-5 -15 3 -14 22 -10 33 6 19 8 -7 12 -17 9 -22z m4483 -11 c40 -21 93 -79 93
-102 0 -6 -23 -23 -50 -38 l-51 -27 15 28 c13 25 13 32 0 58 -8 16 -29 40 -46
54 -19 16 -28 31 -24 38 9 16 14 15 63 -11z m-148 -11 c9 -11 9 -16 0 -22 -8
-4 -9 -3 -5 4 4 7 2 12 -3 12 -6 0 -11 5 -11 10 0 14 5 13 19 -4z m-39 -36 c0
-5 -2 -10 -4 -10 -3 0 -8 5 -11 10 -3 6 -1 10 4 10 6 0 11 -4 11 -10z m-1497
-331 c-11 -11 -214 -21 -561 -26 l-302 -5 -7 33 c-5 27 -7 30 -13 14 -4 -11
-5 50 -3 135 3 85 6 156 6 156 1 1 191 4 423 8 l421 7 -2 -67 c-1 -37 0 -77 3
-88 6 -20 6 -19 12 4 4 14 3 35 -1 47 -5 13 -6 30 -2 40 6 15 7 15 14 -3 5
-13 8 -4 11 31 1 28 4 -24 5 -114 2 -91 0 -168 -4 -172z m1452 310 c-4 -5 -21
-8 -38 -8 -30 2 -31 2 -4 6 15 2 27 9 27 14 0 6 5 7 10 4 6 -4 8 -11 5 -16z
m436 -21 c12 -18 51 -63 86 -99 49 -50 64 -72 61 -90 -3 -21 -9 -24 -48 -27
-35 -2 -41 0 -27 8 9 6 17 18 17 26 0 8 -4 13 -9 10 -15 -10 -41 5 -42 23 0
10 -2 11 -6 4 -2 -7 -11 -13 -19 -13 -8 0 -14 6 -14 13 0 6 -14 21 -30 32 -16
11 -30 23 -30 28 0 4 -5 7 -11 7 -6 0 -17 6 -25 14 -12 13 -11 19 12 45 14 17
23 35 19 41 -4 6 4 10 19 10 17 0 32 -10 47 -32z m-346 0 c5 4 5 1 1 -6 -5 -9
-12 -9 -27 -2 -10 6 -19 13 -19 16 0 2 8 0 19 -5 10 -6 22 -7 26 -3z m-118
-44 c-3 -3 -12 -4 -19 -1 -8 3 -5 6 6 6 11 1 17 -2 13 -5z m-26 -14 c6 0 7 -5
3 -11 -5 -9 2 -10 22 -6 16 3 23 4 16 1 -6 -3 -10 -10 -6 -15 8 -14 -46 9 -64
28 -16 16 -16 16 1 10 10 -4 23 -7 28 -7z m169 -20 c0 -5 -4 -10 -10 -10 -5 0
-10 5 -10 10 0 6 5 10 10 10 6 0 10 -4 10 -10z m37 -12 c-3 -8 -6 -5 -6 6 -1
11 2 17 5 13 3 -3 4 -12 1 -19z m-91 -5 c-10 -10 -46 -11 -46 -1 0 4 12 8 27
8 14 0 23 -3 19 -7z m-73 -28 c-3 -9 -8 -14 -10 -11 -3 3 -2 9 2 15 9 16 15
13 8 -4z m82 -4 c-3 -6 -11 -11 -16 -11 -5 0 -4 6 3 14 14 16 24 13 13 -3z
m-35 5 c0 -2 -9 -6 -20 -9 -11 -3 -18 -1 -14 4 5 9 34 13 34 5z m70 0 c0 -2
-8 -10 -17 -17 -16 -13 -17 -12 -4 4 13 16 21 21 21 13z m-630 -26 c0 -5 -5
-10 -11 -10 -5 0 -7 5 -4 10 3 6 8 10 11 10 2 0 4 -4 4 -10z m490 -4 c0 -3 -4
-8 -10 -11 -5 -3 -10 -1 -10 4 0 6 5 11 10 11 6 0 10 -2 10 -4z m22 -41 c16 0
17 -13 1 -26 -11 -9 -14 -10 -9 -1 4 6 3 12 -2 12 -6 0 -13 7 -16 16 -4 10 -2
13 7 7 6 -4 15 -8 19 -8z m-5012 -45 c8 -5 11 -10 5 -10 -5 0 -17 5 -25 10 -8
5 -10 10 -5 10 6 0 17 -5 25 -10z m5145 0 c-3 -5 -12 -10 -18 -10 -7 0 -6 4 3
10 19 12 23 12 15 0z m555 -31 l83 -41 -27 -18 c-32 -20 -90 -98 -114 -150 -9
-19 -28 -69 -42 -110 -25 -75 -25 -75 -62 -76 -36 -1 -38 1 -53 45 l-15 46 4
-43 c6 -64 -9 -68 -204 -56 -88 6 -162 13 -166 16 -3 3 -8 56 -11 117 l-6 110
27 11 c15 5 48 24 73 42 46 31 49 24 10 -19 -31 -34 -4 -27 34 9 58 53 123 78
214 79 44 1 114 5 155 8 l75 7 -40 19 c-38 18 -45 21 -62 24 -11 2 19 21 33
21 7 0 49 -18 94 -41z m-701 -6 c-24 -32 -47 -52 -52 -47 -3 3 9 19 26 35 37
33 45 37 26 12z m151 -3 c0 -10 -38 -1 -45 10 -2 4 7 5 20 2 14 -2 25 -8 25
-12z m-5165 -40 c-21 -41 -145 -103 -145 -72 1 19 23 38 82 68 79 41 82 41 63
4z m2702 -2 c-3 -8 -6 -5 -6 6 -1 11 2 17 5 13 3 -3 4 -12 1 -19z m1088 -2
c36 -18 44 -25 28 -25 -28 -1 -103 28 -103 40 0 15 22 10 75 -15z m1365 -6
c-8 -5 -22 -9 -30 -9 -10 0 -8 3 5 9 27 12 43 12 25 0z m713 -29 c27 -24 67
-90 67 -108 0 -5 -17 -17 -37 -28 -21 -11 -73 -54 -116 -94 -66 -63 -81 -73
-96 -64 -10 6 -29 9 -44 6 -32 -6 -33 -3 -7 72 29 85 84 177 129 218 45 40 58
40 104 -2z m-919 -12 c-3 -5 -10 -7 -15 -3 -7 4 -9 -7 -7 -27 3 -34 4 -34 52
-33 44 0 47 -1 30 -14 -18 -14 -18 -14 3 -9 20 4 22 0 28 -68 4 -40 4 -87 0
-105 -6 -29 -10 -31 -38 -27 -18 3 -89 9 -159 13 -71 3 -128 9 -128 11 0 3 11
47 25 99 14 52 25 102 25 111 0 15 10 18 64 18 58 0 66 3 86 28 12 15 26 25
31 21 5 -3 7 -10 3 -15z m-1184 -1 c-14 -5 -122 -14 -240 -19 -118 -4 -267
-11 -329 -14 -63 -3 -112 -3 -109 0 8 8 209 23 423 31 99 4 182 8 184 10 2 2
25 4 50 3 42 0 44 -1 21 -11z m1386 -17 c-7 -11 -46 -21 -46 -12 0 13 13 21
32 21 11 0 17 -4 14 -9z m-2076 -16 c0 -2 -10 -10 -22 -16 -21 -11 -22 -11 -9
4 13 16 31 23 31 12z m-1191 -75 c6 -28 11 -65 11 -83 l-1 -32 -14 40 c-8 22
-17 59 -21 83 -9 60 12 54 25 -8z m4875 19 c-3 -5 -10 -7 -15 -3 -5 3 -7 10
-3 15 3 5 10 7 15 3 5 -3 7 -10 3 -15z m-2994 -7 c0 -21 -27 -62 -40 -62 -13
0 -13 1 0 10 20 13 4 12 -42 -1 -21 -5 -38 -16 -38 -23 0 -8 -15 -17 -32 -20
-24 -4 -392 -23 -500 -26 -5 0 -8 23 -8 50 0 48 1 50 28 51 21 1 311 14 600
27 17 1 32 -2 32 -6z m-2051 -39 c13 -46 14 -123 2 -123 -4 0 -14 28 -20 63
-7 34 -14 70 -17 80 -4 11 0 17 10 17 9 0 19 -15 25 -37z m4828 21 c-3 -3 -12
-4 -19 -1 -8 3 -5 6 6 6 11 1 17 -2 13 -5z m218 -4 c-3 -5 -10 -10 -16 -10 -5
0 -9 5 -9 10 0 6 7 10 16 10 8 0 12 -4 9 -10z m-360 -50 c3 -5 1 -10 -4 -10
-6 0 -11 5 -11 10 0 6 2 10 4 10 3 0 8 -4 11 -10z m332 -40 c7 -14 10 -27 7
-30 -6 -5 -43 40 -44 53 0 17 25 0 37 -23z m-4700 -22 c-3 -8 -6 -5 -6 6 -1
11 2 17 5 13 3 -3 4 -12 1 -19z m4590 11 c13 -13 1 -30 -31 -42 -19 -8 -19 -7
-2 12 10 11 15 25 11 30 -8 15 8 14 22 0z m-4617 -11 c0 -6 -3 -8 -7 -5 -3 4
-12 2 -20 -4 -10 -9 -13 -8 -13 5 0 9 8 16 20 16 11 0 20 -5 20 -12z m4580 2
c0 -5 -4 -10 -10 -10 -5 0 -10 5 -10 10 0 6 5 10 10 10 6 0 10 -4 10 -10z
m-600 -30 c0 -10 3 -30 6 -46 l5 -29 -82 -1 c-79 -1 -87 -4 -193 -57 -60 -31
-112 -54 -115 -51 -9 8 64 75 130 119 79 52 130 75 184 84 49 9 65 4 65 -19z
m-3410 -5 c0 -8 -2 -15 -4 -15 -2 0 -6 7 -10 15 -3 8 -1 15 4 15 6 0 10 -7 10
-15z m40 -5 c0 -5 -5 -10 -11 -10 -5 0 -7 5 -4 10 3 6 8 10 11 10 2 0 4 -4 4
-10z m70 -1 c0 -14 -29 -17 -46 -5 -16 12 -14 13 14 12 18 0 32 -4 32 -7z
m-649 -36 c-40 -17 -109 -29 -75 -14 12 5 25 14 29 20 3 6 17 8 31 5 15 -4 24
-2 24 6 0 6 5 8 12 4 8 -5 1 -13 -21 -21z m4516 21 c-3 -3 -12 -4 -19 -1 -8 3
-5 6 6 6 11 1 17 -2 13 -5z m-4811 -31 c-10 -10 -19 5 -10 18 6 11 8 11 12 0
2 -7 1 -15 -2 -18z m4970 7 c0 -11 -4 -20 -8 -20 -10 0 -11 24 -1 33 9 9 9 10
9 -13z m-5039 -5 c0 -8 -4 -12 -9 -9 -5 3 -6 10 -3 15 9 13 12 11 12 -6z
m5003 -5 c0 -5 -7 -10 -15 -10 -8 0 -15 5 -15 10 0 6 7 10 15 10 8 0 15 -4 15
-10z m-4740 -5 c0 -2 -9 -9 -20 -15 -12 -6 -20 -7 -20 -1 0 5 8 12 18 14 9 3
18 5 20 6 1 0 2 -1 2 -4z m-60 -19 c0 -9 -30 -14 -35 -6 -4 6 3 10 14 10 12 0
21 -2 21 -4z m-117 -18 c4 -10 7 -10 15 0 6 9 16 10 32 4 23 -8 22 -9 -13 -16
-38 -7 -57 -2 -57 15 0 13 17 11 23 -3z m2076 -2 c15 -18 -29 -66 -61 -67 -13
0 -17 -3 -10 -6 7 -3 25 0 40 5 44 18 116 26 108 13 -5 -7 7 -11 37 -11 29 0
47 -5 50 -14 3 -8 23 -20 44 -27 37 -12 113 -55 123 -69 3 -4 12 -9 20 -12 10
-3 15 -20 16 -54 1 -27 9 -71 18 -98 17 -51 14 -52 -33 -8 -35 33 -170 87
-183 74 -5 -5 -44 -8 -86 -6 -48 2 -64 0 -42 -4 l35 -7 -41 -14 c-41 -13 -84
-8 -84 10 0 14 -34 11 -56 -7 -18 -14 -18 -15 4 -4 15 7 22 7 22 0 0 -5 8 -10
18 -11 13 0 13 -2 -4 -9 -25 -10 -41 -30 -24 -30 6 0 21 5 32 11 13 7 24 7 30
1 15 -15 -46 -32 -81 -22 -16 4 -33 5 -37 2 -4 -4 -4 -1 1 7 8 15 13 55 21
170 2 41 9 80 14 86 5 7 6 16 2 20 -4 5 -1 5 7 0 11 -6 13 -3 9 12 -4 16 -2
19 13 16 11 -3 19 -1 19 5 0 6 10 12 22 14 13 2 24 11 26 22 4 18 3 19 -13 3
-9 -9 -24 -17 -33 -16 -14 0 -14 2 -2 6 8 3 19 12 23 19 10 18 22 18 36 0z
m466 -16 c40 -17 69 -20 192 -20 l146 0 -7 -55 c-5 -43 -3 -55 8 -55 19 0 32
19 40 57 4 17 13 36 19 40 10 8 326 -4 335 -11 1 -2 3 -21 4 -44 3 -81 28 -82
51 -1 l13 44 89 3 c50 1 149 -1 220 -5 l130 -8 -1 -25 c0 -14 -3 -50 -7 -80
-4 -30 -10 -80 -13 -111 -6 -52 -9 -57 -38 -67 -40 -15 -148 -15 -281 -1 -55
6 -260 12 -456 14 -351 3 -495 14 -511 39 -4 6 -8 30 -8 54 0 24 -7 78 -16
120 -22 105 -22 107 4 110 12 2 22 8 22 13 0 13 13 11 65 -11z m-405 -10 c18
-12 2 -12 -25 0 -13 6 -15 9 -5 9 8 0 22 -4 30 -9z m-2250 -10 c0 -5 -5 -10
-11 -10 -5 0 -7 5 -4 10 3 6 8 10 11 10 2 0 4 -4 4 -10z m957 -41 c-5 -4 -4
-9 2 -13 6 -4 11 -15 11 -24 0 -15 -2 -15 -10 -2 -9 13 -10 13 -10 0 -1 -8 -6
-4 -11 9 -5 14 -7 38 -3 54 l6 29 12 -23 c7 -14 8 -27 3 -30z m596 44 c-7 -2
-19 -2 -25 0 -7 3 -2 5 12 5 14 0 19 -2 13 -5z m964 -31 c7 -7 13 -19 13 -25
0 -7 -11 1 -26 16 -14 16 -22 32 -18 39 6 9 9 8 12 -2 3 -8 11 -21 19 -28z
m2613 28 c0 -5 -7 -10 -15 -10 -8 0 -15 5 -15 10 0 6 7 10 15 10 8 0 15 -4 15
-10z m-130 -4 c0 -3 -4 -8 -10 -11 -5 -3 -10 -1 -10 4 0 6 5 11 10 11 6 0 10
-2 10 -4z m-1075 -83 l-16 -28 6 40 c8 49 19 67 23 38 2 -12 -4 -34 -13 -50z
m1165 28 c0 -5 -11 -11 -25 -13 -17 -4 -25 -1 -25 9 0 8 4 12 9 8 5 -3 12 -1
16 5 7 11 25 4 25 -9z m-738 -48 c4 -36 -11 -244 -18 -252 -2 -2 -9 1 -16 7
-18 14 -54 17 -118 8 -83 -11 -238 -55 -292 -82 l-47 -24 16 48 c8 26 16 78
17 116 l2 69 54 49 c30 27 66 54 80 60 51 22 138 36 226 37 l92 1 4 -37z
m-3389 -35 c-10 -22 -11 -21 -10 10 0 22 3 30 10 23 7 -7 7 -18 0 -33z m4121
27 c-4 -8 -10 -12 -15 -9 -14 8 -10 24 6 24 9 0 12 -6 9 -15z m-3279 -67 c0
-51 -21 -62 -27 -15 -5 42 0 57 16 57 7 0 12 -16 11 -42z m-402 -300 c2 -159
1 -288 -3 -288 -4 0 -12 34 -18 76 -9 57 -9 80 -1 90 11 14 10 29 -7 68 -4 11
-4 17 2 14 5 -3 10 9 11 28 1 19 -2 34 -6 34 -12 0 -11 28 2 98 7 40 7 66 1
70 -5 4 -16 16 -24 27 -15 20 -14 20 8 1 l22 -19 1 54 c0 30 2 50 4 44 2 -5 5
-139 8 -297z m3357 278 c0 -2 -7 -7 -16 -10 -8 -3 -12 -2 -9 4 6 10 25 14 25
6z m115 -6 c-3 -5 -16 -10 -28 -9 -20 1 -20 2 3 9 14 4 26 8 28 9 2 1 0 -3 -3
-9z m-35 -30 c0 -5 -4 -10 -10 -10 -5 0 -10 5 -10 10 0 6 5 10 10 10 6 0 10
-4 10 -10z m197 -16 c-3 -3 -12 -4 -19 -1 -8 3 -5 6 6 6 11 1 17 -2 13 -5z
m21 -56 c-10 -4 -18 -12 -18 -18 0 -5 -12 -10 -27 -9 -27 0 -27 1 -5 9 25 11
30 30 7 30 -8 0 -15 5 -15 10 0 6 9 10 20 10 11 0 20 -4 20 -10 0 -21 20 -9
21 13 1 21 1 21 8 -3 6 -19 3 -27 -11 -32z m-618 -17 c30 -13 64 -30 75 -37
19 -14 19 -14 0 -14 -11 0 -30 -3 -42 -6 -15 -4 -29 1 -45 17 -13 13 -30 24
-38 24 -7 0 -15 13 -17 30 -2 17 0 25 4 19 5 -5 33 -21 63 -33z m-3453 7 c-3
-8 -6 -5 -6 6 -1 11 2 17 5 13 3 -3 4 -12 1 -19z m249 16 l52 -7 1 -133 2
-134 -49 1 c-26 1 -58 -2 -70 -5 -12 -4 -31 -5 -42 -1 -18 6 -20 14 -18 133 1
70 4 133 6 140 5 13 40 15 118 6z m594 -4 l-25 -8 25 -2 c14 -1 19 -4 12 -7
-7 -3 -25 -2 -40 2 -25 7 -25 8 -7 15 11 5 29 8 40 8 16 0 15 -2 -5 -8z m2800
0 c0 -5 -2 -10 -4 -10 -3 0 -8 5 -11 10 -3 6 -1 10 4 10 6 0 11 -4 11 -10z
m17 -22 c-3 -7 -5 -2 -5 12 0 14 2 19 5 13 2 -7 2 -19 0 -25z m-152 4 c-3 -3
-11 0 -18 7 -9 10 -8 11 6 5 10 -3 15 -9 12 -12z m-6115 -7 c0 -8 -9 -15 -20
-15 -29 0 -25 -32 5 -46 19 -9 27 -9 35 1 17 20 58 27 83 14 30 -16 37 -28 37
-71 0 -27 -6 -41 -22 -52 -51 -36 -118 -5 -118 54 0 23 -5 30 -19 30 -17 0
-20 -8 -23 -47 -2 -35 -7 -48 -18 -48 -12 0 -16 17 -18 83 -2 53 1 89 9 98 16
19 69 18 69 -1z m3214 6 c9 -13 -19 -21 -75 -21 -46 0 -59 7 -42 23 10 10 111
8 117 -2z m-3024 -37 c0 -17 5 -24 20 -24 11 0 20 -4 20 -10 0 -5 -9 -10 -20
-10 -30 0 -29 -69 0 -77 30 -8 18 -28 -16 -28 l-29 0 -3 79 c-2 44 0 86 2 93
8 21 26 5 26 -23z m3675 26 c8 -13 -5 -13 -25 0 -13 8 -13 10 2 10 9 0 20 -4
23 -10z m-3998 -52 c-3 -8 -6 -5 -6 6 -1 11 2 17 5 13 3 -3 4 -12 1 -19z m493
-4 c7 -7 14 -30 14 -50 0 -68 -72 -97 -119 -49 -27 26 -30 41 -15 80 17 44 83
55 120 19z m55 16 c5 -8 11 -7 20 0 16 14 35 5 35 -16 0 -8 -9 -14 -19 -14
-23 0 -31 -19 -31 -71 0 -27 -4 -39 -14 -39 -21 0 -26 39 -17 138 1 15 17 16
26 2z m2202 -42 c-2 -13 -4 -5 -4 17 -1 22 1 32 4 23 2 -10 2 -28 0 -40z
m3983 33 c5 -11 17 -27 26 -36 13 -12 14 -19 5 -28 -8 -8 -11 -7 -11 6 0 9 -4
17 -10 17 -5 0 -10 5 -10 12 0 6 -7 20 -17 30 -9 10 -11 18 -5 18 6 0 16 -9
22 -19z m-30 -21 c0 -5 -4 -10 -10 -10 -5 0 -10 5 -10 10 0 6 5 10 10 10 6 0
10 -4 10 -10z m-6725 -30 c-3 -5 -1 -10 4 -10 6 0 11 -7 11 -15 0 -8 -4 -15
-10 -15 -5 0 -10 7 -10 15 0 9 -6 12 -17 9 -15 -5 -15 -3 1 10 23 18 30 20 21
6z m3417 -19 l23 -9 -27 -12 c-29 -14 -62 -9 -92 13 -17 12 -14 14 27 15 25 1
56 -2 69 -7z m-3374 -26 c-3 -3 -9 2 -12 12 -6 14 -5 15 5 6 7 -7 10 -15 7
-18z m632 -25 c0 -5 -4 -10 -10 -10 -5 0 -10 5 -10 10 0 6 5 10 10 10 6 0 10
-4 10 -10z m3317 -6 c-3 -3 -12 -4 -19 -1 -8 3 -5 6 6 6 11 1 17 -2 13 -5z
m-3957 -38 c0 -6 -5 -3 -11 7 -9 15 -13 16 -27 5 -15 -12 -16 -11 -3 5 10 13
17 15 27 6 8 -6 14 -17 14 -23z m4017 28 c-3 -3 -12 -4 -19 -1 -8 3 -5 6 6 6
11 1 17 -2 13 -5z m-87 -45 c0 -5 -4 -9 -8 -9 -5 0 -9 7 -9 15 0 8 4 12 9 9 4
-3 8 -9 8 -15z m70 11 c-8 -5 -19 -10 -25 -10 -5 0 -3 5 5 10 8 5 20 10 25 10
6 0 3 -5 -5 -10z m-4046 -27 c4 -4 17 -8 29 -8 30 0 29 -35 -1 -46 -14 -6 -21
-5 -17 1 4 6 -6 7 -24 4 -33 -7 -49 11 -37 41 6 16 37 20 50 8z m291 -28 c0
-14 -3 -25 -7 -25 -4 0 -8 9 -8 20 0 11 -4 20 -10 20 -5 0 -10 -9 -10 -20 0
-13 -7 -20 -20 -20 -15 0 -20 7 -20 24 0 21 6 25 33 28 40 4 40 4 42 -27z
m115 5 c0 -23 -5 -30 -19 -30 -11 0 -23 5 -27 11 -5 8 -9 7 -14 -1 -10 -17
-40 -5 -40 15 0 18 32 34 37 18 3 -8 13 -7 31 3 15 8 28 14 30 14 1 0 2 -13 2
-30z m155 -5 c0 -14 -2 -25 -6 -25 -8 0 -18 48 -11 55 9 8 15 -4 17 -30z m54
-4 c-2 -23 -2 -24 -6 -3 -2 12 -8 22 -13 22 -5 0 -11 -10 -13 -22 -3 -17 -5
-15 -6 9 -1 26 2 30 19 26 14 -4 20 -13 19 -32z m79 12 c8 -26 7 -28 -18 -29
-26 -1 -27 1 -18 27 13 36 23 37 36 2z m29 -20 c-3 -10 -5 -2 -5 17 0 19 2 27
5 18 2 -10 2 -26 0 -35z m3093 37 c0 -5 -5 -10 -11 -10 -5 0 -7 5 -4 10 3 6 8
10 11 10 2 0 4 -4 4 -10z m-3702 -29 c2 -15 0 -21 -7 -16 -6 3 -9 10 -6 15 3
5 1 11 -5 15 -6 3 -14 -4 -19 -17 -9 -22 -10 -22 -10 5 -1 24 3 28 22 25 14
-2 23 -11 25 -27z m52 4 c0 -25 -23 -35 -35 -15 -10 16 2 40 20 40 9 0 15 -9
15 -25z m32 0 c-2 -14 -8 -25 -13 -25 -5 0 -9 11 -9 25 0 14 6 25 14 25 9 0
12 -8 8 -25z m268 -14 c0 -6 -4 -11 -10 -11 -5 0 -10 4 -10 9 0 5 -3 18 -7 28
-6 17 -6 17 10 1 9 -9 17 -21 17 -27z m33 26 c3 12 5 13 6 3 1 -17 -16 -47
-22 -40 -3 3 -8 16 -11 30 -7 23 -6 24 8 7 14 -18 14 -18 19 0z m24 -24 c-3
-10 -5 -4 -5 12 0 17 2 24 5 18 2 -7 2 -21 0 -30z m3310 15 c-3 -8 -6 -5 -6 6
-1 11 2 17 5 13 3 -3 4 -12 1 -19z m58 12 c3 -5 2 -10 -3 -10 -4 0 -18 -9 -30
-20 -23 -22 -26 -18 -12 15 5 11 9 14 9 7 1 -7 6 -10 11 -7 6 4 8 11 5 16 -4
5 -2 9 4 9 5 0 13 -4 16 -10z m-3989 -26 c0 -9 5 -18 12 -20 7 -1 8 0 2 3 -5
2 -7 9 -4 14 3 6 11 5 20 -2 10 -8 11 -15 4 -24 -7 -9 -5 -16 7 -26 16 -13 17
-12 5 2 -10 14 -9 17 8 22 14 3 18 1 13 -6 -8 -13 -10 -19 -12 -42 -1 -20 -21
-20 -21 0 0 8 -13 29 -30 47 -33 34 -37 48 -16 48 8 0 13 -7 12 -16z m3914 -9
c10 -12 10 -15 -4 -15 -9 0 -16 7 -16 15 0 8 2 15 4 15 2 0 9 -7 16 -15z
m-3825 -44 c3 -5 1 -12 -5 -16 -5 -3 -10 1 -10 9 0 18 6 21 15 7z m4150 -91
c-3 -5 -16 -10 -28 -10 -18 0 -19 2 -7 10 20 13 43 13 35 0z m2575 -46 c0 -8
-5 -12 -10 -9 -6 4 -8 11 -5 16 9 14 15 11 15 -7z"/>
<path d="M2443 3133 c9 -2 23 -2 30 0 6 3 -1 5 -18 5 -16 0 -22 -2 -12 -5z"/>
<path d="M2565 3105 c2 -18 -3 -25 -15 -25 -10 0 -20 -7 -24 -15 -3 -8 -13
-15 -22 -15 -11 0 -15 -6 -11 -19 3 -15 -5 -23 -35 -37 -40 -18 -64 -47 -53
-64 9 -14 32 -12 38 3 3 6 27 23 53 37 27 14 51 28 54 32 3 4 29 6 57 4 37 -3
53 0 57 10 4 10 12 11 31 4 16 -6 25 -6 25 0 0 6 -7 10 -15 10 -18 0 -20 30
-2 30 6 1 -4 9 -23 18 -21 11 -34 25 -34 35 2 14 -7 17 -41 17 -40 0 -43 -2
-40 -25z"/>
<path d="M2660 2984 c0 -8 6 -14 14 -14 7 0 19 6 25 14 9 11 6 14 -14 14 -15
0 -25 -6 -25 -14z"/>
<path d="M2801 2801 c-19 -12 10 -30 34 -21 19 7 19 7 -1 18 -11 6 -26 7 -33
3z"/>
<path d="M2567 2773 c-4 -3 -7 -13 -7 -21 0 -12 3 -12 15 -2 21 17 29 7 16
-18 -15 -28 -14 -42 4 -42 8 0 15 -7 15 -15 0 -8 9 -15 21 -15 11 0 17 4 14
10 -4 6 -2 17 4 24 9 10 8 15 -2 19 -8 3 -17 19 -20 36 -5 24 -12 31 -30 31
-13 0 -27 -3 -30 -7z"/>
<path d="M2575 2620 c-3 -5 -1 -10 4 -10 6 0 11 5 11 10 0 6 -2 10 -4 10 -3 0
-8 -4 -11 -10z"/>
<path d="M2827 2619 c7 -7 15 -10 18 -7 3 3 -2 9 -12 12 -14 6 -15 5 -6 -5z"/>
<path d="M2760 2450 c-12 -7 -12 -12 0 -34 10 -20 18 -24 37 -20 13 4 22 2 21
-2 -2 -5 0 -10 5 -11 17 -6 27 -2 27 12 0 8 -7 15 -16 15 -12 0 -15 6 -11 20
4 17 2 20 -14 15 -11 -4 -19 -2 -19 4 0 13 -10 14 -30 1z"/>
<path d="M2665 2370 c-4 -6 -14 -10 -23 -8 -23 4 -56 -22 -60 -47 -5 -27 -7
-28 -30 -16 -17 9 -19 8 -15 -8 3 -10 15 -23 27 -29 20 -9 27 -5 53 23 17 19
29 36 25 39 -3 3 3 6 14 6 10 0 37 7 59 15 35 12 37 14 13 15 -15 0 -30 5 -33
10 -8 13 -22 13 -30 0z"/>
<path d="M2385 2131 c-3 -5 -2 -12 3 -15 5 -3 9 1 9 9 0 17 -3 19 -12 6z"/>
<path d="M2427 1933 c18 -2 50 -2 70 0 21 2 7 4 -32 4 -38 0 -55 -2 -38 -4z"/>
<path d="M3335 3080 c-10 -11 -16 -23 -12 -26 7 -7 57 25 57 37 0 16 -26 9
-45 -11z"/>
<path d="M3194 3016 c0 -14 6 -22 14 -19 15 6 15 11 -2 28 -12 12 -14 11 -12
-9z"/>
<path d="M3485 3000 c3 -5 8 -10 11 -10 2 0 4 5 4 10 0 6 -5 10 -11 10 -5 0
-7 -4 -4 -10z"/>
<path d="M3533 2985 c-8 -22 6 -33 17 -15 13 20 12 30 0 30 -6 0 -13 -7 -17
-15z"/>
<path d="M3617 2982 c-18 -20 -18 -21 12 -36 16 -9 36 -16 43 -15 7 0 3 5 -9
11 -12 6 -23 22 -25 35 l-3 25 -18 -20z"/>
<path d="M3750 2970 c0 -5 5 -10 11 -10 5 0 7 5 4 10 -3 6 -8 10 -11 10 -2 0
-4 -4 -4 -10z"/>
<path d="M3335 2940 c-18 -19 -35 -28 -46 -25 -9 3 -24 -2 -33 -10 -18 -19
-21 -35 -6 -35 6 0 10 6 10 14 0 8 15 16 35 19 36 6 113 67 84 67 -8 0 -28
-14 -44 -30z"/>
<path d="M3656 2864 c-4 -10 -1 -14 6 -12 15 5 23 28 10 28 -5 0 -13 -7 -16
-16z"/>
<path d="M3775 2850 c-10 -11 -13 -20 -8 -20 13 0 38 29 31 35 -3 3 -13 -4
-23 -15z"/>
<path d="M2951 2814 c0 -11 3 -14 6 -6 3 7 2 16 -1 19 -3 4 -6 -2 -5 -13z"/>
<path d="M3186 2792 c-2 -4 4 -8 14 -8 10 0 16 4 14 8 -3 4 -9 8 -14 8 -5 0
-11 -4 -14 -8z"/>
<path d="M5520 2525 c-7 -9 -8 -15 -2 -15 5 0 12 7 16 15 3 8 4 15 2 15 -2 0
-9 -7 -16 -15z"/>
<path d="M5599 2523 c-12 -15 -12 -16 3 -10 9 3 22 0 28 -8 8 -10 8 -14 -2
-17 -8 -3 -6 -7 6 -11 9 -4 15 -3 11 2 -3 5 5 12 17 14 23 4 23 4 1 6 -12 0
-24 10 -28 21 -8 24 -18 25 -36 3z"/>
<path d="M3330 2450 c53 -22 77 -24 83 -7 3 6 6 2 6 -9 1 -25 -40 -38 -59 -20
-8 8 -15 6 -24 -7 -12 -16 -14 -14 -20 14 -6 33 -16 34 -20 2 -2 -13 -10 -17
-29 -15 -18 2 -27 -2 -30 -15 -3 -15 -6 -14 -14 7 -16 39 -32 46 -106 48 -64
1 -68 0 -77 -24 -6 -14 -15 -22 -20 -19 -6 4 -22 -6 -36 -21 -21 -22 -28 -24
-35 -13 -6 10 -9 7 -9 -13 0 -14 6 -28 13 -31 10 -4 10 -7 0 -18 -21 -21 -13
-96 8 -83 14 8 11 -23 -4 -38 -7 -7 -14 -33 -16 -58 -1 -25 -4 -62 -6 -82 -6
-61 9 -71 108 -72 56 -1 90 3 98 11 10 10 9 14 -4 19 -24 9 -21 24 3 24 11 0
23 -7 26 -15 4 -8 15 -15 25 -15 14 0 19 7 19 30 0 18 6 33 15 36 22 9 19 19
-11 39 -32 21 -57 26 -65 13 -3 -5 -13 -2 -23 7 -9 9 -16 12 -16 6 0 -6 -7 -8
-16 -4 -11 4 -12 9 -5 16 7 7 7 14 0 23 -7 9 -4 19 12 35 l22 22 20 -43 c19
-39 21 -41 29 -21 11 32 34 35 59 10 18 -18 24 -20 28 -8 3 8 15 14 26 14 15
0 19 -6 18 -23 -2 -14 1 -21 7 -17 6 3 14 -3 18 -14 4 -11 10 -20 15 -20 4 -1
7 -3 7 -6 0 -3 0 -9 0 -15 0 -5 -8 -10 -17 -10 -13 0 -14 -3 -5 -12 8 -8 15
-8 26 2 9 7 14 16 11 20 -3 5 -1 11 5 15 5 3 10 21 10 39 0 30 15 56 32 56 4
0 8 -7 8 -15 0 -23 23 -28 56 -10 16 8 35 15 43 15 9 0 11 8 7 24 -9 35 21 43
45 11 20 -24 20 -24 39 -5 25 25 25 30 0 30 -27 0 -57 64 -40 85 6 8 9 18 6
23 -8 14 21 35 39 28 18 -7 20 5 3 22 -7 7 -9 12 -4 12 4 0 0 7 -9 16 -12 13
-19 14 -28 5 -6 -6 -18 -11 -26 -11 -10 0 -8 6 9 22 17 16 20 23 10 26 -7 3
-21 -4 -30 -14 -22 -26 -59 -46 -70 -39 -14 9 -12 42 3 48 6 3 -33 6 -88 6
l-100 0 45 -19z m-290 -114 c0 -15 -64 -76 -80 -76 -6 0 -10 7 -10 16 0 8 5
12 10 9 6 -3 10 -2 10 3 0 5 9 21 21 36 22 28 49 35 49 12z m160 -246 c0 -5
-5 -12 -11 -16 -14 -8 -33 11 -25 25 7 11 36 4 36 -9z"/>
<path d="M3696 2441 c-4 -5 -3 -17 0 -26 4 -8 3 -15 -2 -14 -5 1 -19 1 -31 0
-29 -1 -31 -31 -3 -31 11 0 20 5 20 10 0 6 9 10 21 10 12 0 18 4 13 11 -3 6
-1 15 6 19 7 4 9 13 6 19 -9 13 -23 14 -30 2z"/>
<path d="M3830 2435 c-7 -9 -10 -18 -6 -22 9 -10 58 16 51 27 -9 15 -31 12
-45 -5z"/>
<path d="M3760 2376 c0 -7 10 -22 23 -33 27 -25 97 -30 97 -7 0 8 -4 12 -10 9
-5 -3 -10 -2 -10 4 0 5 6 11 13 14 21 8 4 14 -55 20 -43 4 -58 2 -58 -7z"/>
<path d="M3609 2341 c-21 -17 -22 -20 -7 -26 16 -6 58 21 58 37 0 14 -27 8
-51 -11z"/>
<path d="M3654 2295 c-32 -13 -54 -35 -35 -35 5 0 11 5 13 11 5 14 38 0 38
-16 0 -8 -4 -17 -10 -20 -17 -11 -11 -25 8 -18 14 6 15 4 4 -9 -8 -11 -9 -18
-3 -23 6 -3 13 6 17 20 6 26 57 61 73 50 8 -5 21 16 21 35 0 14 -31 20 -51 9
-13 -7 -24 -7 -32 -1 -8 7 -22 6 -43 -3z"/>
<path d="M3952 2260 c0 -14 2 -19 5 -12 2 6 2 18 0 25 -3 6 -5 1 -5 -13z"/>
<path d="M3727 2233 c-10 -10 -8 -35 2 -29 5 4 16 3 25 0 14 -5 14 -8 1 -27
-11 -15 -12 -24 -3 -34 6 -7 7 -13 2 -13 -4 0 1 -6 12 -14 16 -13 22 -13 41 0
34 22 51 18 45 -11 -2 -14 -8 -25 -13 -25 -5 0 -9 -5 -9 -11 0 -5 5 -7 11 -4
6 4 17 -1 24 -11 14 -18 14 -18 15 1 1 11 4 39 6 63 3 24 0 49 -5 56 -6 7 -7
16 -3 21 4 4 -4 4 -17 0 -22 -7 -23 -5 -17 19 5 21 3 26 -11 26 -10 0 -27 -7
-37 -15 -25 -19 -46 -19 -46 0 0 16 -12 20 -23 8z m92 -52 c13 -8 13 -12 1
-26 -13 -16 -15 -16 -27 1 -20 27 -3 43 26 25z"/>
<path d="M3471 2126 c-10 -11 -8 -16 9 -21 26 -8 35 -1 27 20 -8 19 -21 19
-36 1z"/>
<path d="M3260 2075 c-11 -13 -8 -15 14 -15 16 0 26 5 26 15 0 8 -6 15 -14 15
-7 0 -19 -7 -26 -15z"/>
<path d="M3406 2061 c-4 -5 -3 -16 0 -25 5 -13 8 -13 20 -1 8 7 14 18 14 24 0
13 -27 15 -34 2z"/>
<path d="M3308 2013 c7 -3 16 -2 19 1 4 3 -2 6 -13 5 -11 0 -14 -3 -6 -6z"/>
<path d="M3838 2013 c7 -3 16 -2 19 1 4 3 -2 6 -13 5 -11 0 -14 -3 -6 -6z"/>
<path d="M2948 1303 c6 -2 18 -2 25 0 6 3 1 5 -13 5 -14 0 -19 -2 -12 -5z"/>
<path d="M3991 1504 c0 -11 3 -14 6 -6 3 7 2 16 -1 19 -3 4 -6 -2 -5 -13z"/>
<path d="M4220 610 c0 -5 10 -10 23 -10 18 0 19 2 7 10 -19 13 -30 13 -30 0z"/>
<path d="M491 456 c-20 -24 -10 -70 16 -74 29 -4 46 28 33 62 -11 29 -31 34
-49 12z"/>
<path d="M720 456 c-15 -19 -9 -56 12 -69 34 -22 66 41 36 71 -16 16 -33 15
-48 -2z"/>
<path d="M235 270 c-8 -13 3 -30 18 -30 7 0 6 4 -3 10 -13 9 -13 11 0 20 9 6
10 10 3 10 -6 0 -15 -4 -18 -10z"/>
<path d="M500 255 c0 -8 5 -15 10 -15 6 0 10 7 10 15 0 8 -4 15 -10 15 -5 0
-10 -7 -10 -15z"/>
<path d="M647 264 c-8 -8 1 -24 14 -24 5 0 9 7 9 15 0 15 -12 20 -23 9z"/>
<path d="M945 260 c-3 -5 -1 -10 4 -10 6 0 11 5 11 10 0 6 -2 10 -4 10 -3 0
-8 -4 -11 -10z"/>
<path d="M3294 3291 c3 -5 -1 -11 -9 -15 -8 -3 -17 -1 -20 4 -4 6 -14 6 -26
-1 -16 -8 -18 -13 -8 -25 6 -8 8 -14 5 -14 -4 0 -2 -9 4 -20 9 -17 21 -20 76
-20 59 0 65 2 59 19 -4 14 1 20 17 25 17 4 19 8 10 14 -7 5 -10 16 -6 25 5 13
1 17 -16 17 -11 0 -18 -4 -15 -10 3 -5 2 -10 -4 -10 -5 0 -13 5 -16 10 -3 6
-17 10 -31 10 -14 0 -23 -4 -20 -9z"/>
<path d="M4998 3287 c-2 -7 -2 -27 2 -44 6 -41 25 -31 34 17 5 31 3 36 -13 37
-11 1 -21 -4 -23 -10z"/>
<path d="M6012 3138 c1 -178 12 -149 16 45 2 76 -1 117 -8 117 -6 0 -9 -55 -8
-162z"/>
<path d="M6057 3013 c-4 -157 -7 -339 -7 -404 l0 -117 78 4 c42 3 105 7 140
10 l62 6 1 101 c1 56 2 111 4 122 1 17 -7 152 -18 305 -5 65 -25 110 -44 103
-11 -4 -14 -2 -9 5 4 6 -1 10 -12 9 -13 -1 -17 -7 -14 -27 5 -36 -21 -58 -43
-37 -8 9 -17 26 -19 39 -2 13 -9 22 -15 21 -6 -2 -11 7 -11 20 0 13 -6 29 -12
36 -11 11 -10 13 4 8 10 -3 20 -2 23 3 4 6 1 10 -4 10 -6 0 -11 7 -11 15 0 24
-28 17 -33 -7 -3 -17 -5 -13 -7 12 -1 19 -2 38 -1 43 0 4 -10 7 -22 7 l-24 0
-6 -287z m80 -60 c9 -7 27 -13 40 -13 13 0 23 -4 23 -10 0 -5 -20 -10 -45 -10
l-45 0 2 63 c1 45 2 51 5 22 2 -22 11 -46 20 -52z m43 -63 c0 -5 -4 -10 -10
-10 -5 0 -10 5 -10 10 0 6 5 10 10 10 6 0 10 -4 10 -10z"/>
<path d="M6390 3103 c0 -245 -10 -792 -15 -815 -2 -12 3 -18 16 -18 11 0 19 7
20 18 0 9 2 241 4 515 4 433 3 497 -10 497 -13 0 -15 -30 -15 -197z"/>
<path d="M3570 3274 c0 -8 5 -12 10 -9 6 3 10 10 10 16 0 5 -4 9 -10 9 -5 0
-10 -7 -10 -16z"/>
<path d="M4813 3215 c0 -44 2 -61 4 -37 2 23 2 59 0 80 -2 20 -4 1 -4 -43z"/>
<path d="M5188 3283 c7 -3 16 -2 19 1 4 3 -2 6 -13 5 -11 0 -14 -3 -6 -6z"/>
<path d="M4051 3264 c0 -11 3 -14 6 -6 3 7 2 16 -1 19 -3 4 -6 -2 -5 -13z"/>
<path d="M3405 3228 c-15 -22 -14 -23 7 -30 37 -10 118 -9 118 2 0 6 -7 10
-15 10 -8 0 -15 7 -15 16 0 12 -7 14 -30 9 -19 -4 -30 -3 -30 4 0 18 -18 12
-35 -11z"/>
<path d="M5590 3240 c-8 -5 -10 -10 -5 -10 6 0 17 5 25 10 8 5 11 10 5 10 -5
0 -17 -5 -25 -10z"/>
<path d="M5544 3192 c-23 -17 -9 -51 26 -65 9 -3 10 -6 3 -6 -19 -1 -16 -21 3
-21 9 0 14 -7 12 -17 -4 -23 16 -30 20 -7 10 48 -38 134 -64 116z"/>
<path d="M5611 3164 c0 -11 3 -14 6 -6 3 7 2 16 -1 19 -3 4 -6 -2 -5 -13z"/>
<path d="M6285 3170 c3 -5 8 -10 11 -10 2 0 4 5 4 10 0 6 -5 10 -11 10 -5 0
-7 -4 -4 -10z"/>
<path d="M4052 3110 c0 -14 2 -19 5 -12 2 6 2 18 0 25 -3 6 -5 1 -5 -13z"/>
<path d="M5286 3114 c-3 -8 -2 -12 4 -9 6 3 10 1 10 -4 0 -6 7 -11 15 -11 8 0
15 9 15 20 0 24 -35 28 -44 4z"/>
<path d="M6210 3109 c0 -5 5 -7 10 -4 6 3 10 8 10 11 0 2 -4 4 -10 4 -5 0 -10
-5 -10 -11z"/>
<path d="M5310 3055 c-11 -13 -10 -14 4 -9 9 3 16 10 16 15 0 13 -6 11 -20 -6z"/>
<path d="M4812 3000 c0 -14 2 -19 5 -12 2 6 2 18 0 25 -3 6 -5 1 -5 -13z"/>
<path d="M4813 2725 c0 -22 2 -30 4 -17 2 12 2 30 0 40 -3 9 -5 -1 -4 -23z"/>
<path d="M231 2694 c0 -11 3 -14 6 -6 3 7 2 16 -1 19 -3 4 -6 -2 -5 -13z"/>
<path d="M333 2663 c15 -2 37 -2 50 0 12 2 0 4 -28 4 -27 0 -38 -2 -22 -4z"/>
<path d="M453 2663 c26 -2 68 -2 95 0 26 2 4 3 -48 3 -52 0 -74 -1 -47 -3z"/>
<path d="M4812 2620 c0 -19 2 -27 5 -17 2 9 2 25 0 35 -3 9 -5 1 -5 -18z"/>
<path d="M290 2509 c0 -5 -5 -8 -11 -6 -6 1 -14 -4 -16 -10 -4 -10 19 -13 89
-15 51 -1 109 -3 128 -4 19 -2 69 0 110 3 l75 7 -70 8 c-38 4 -91 5 -117 2
-26 -3 -62 -1 -80 4 -52 16 -108 22 -108 11z"/>
<path d="M4811 2504 c0 -11 3 -14 6 -6 3 7 2 16 -1 19 -3 4 -6 -2 -5 -13z"/>
<path d="M728 2493 c7 -3 16 -2 19 1 4 3 -2 6 -13 5 -11 0 -14 -3 -6 -6z"/>
<path d="M5266 2455 c4 -8 10 -15 15 -15 4 0 6 7 3 15 -4 8 -10 15 -15 15 -4
0 -6 -7 -3 -15z"/>
<path d="M5424 2409 c-7 -11 12 -29 31 -29 6 0 4 4 -4 9 -7 5 -10 14 -7 20 4
6 3 11 -3 11 -5 0 -13 -5 -17 -11z"/>
<path d="M285 2310 c-3 -6 1 -13 10 -16 14 -6 15 -32 15 -208 -1 -244 -2 -229
10 -221 15 9 13 428 -2 443 -15 15 -25 15 -33 2z"/>
<path d="M400 2310 c-33 -7 -32 -8 18 -10 28 -1 58 -3 65 -4 6 0 15 -17 18
-36 l6 -35 2 38 c0 20 1 40 1 44 0 10 -67 12 -110 3z"/>
<path d="M534 2309 c-7 -12 9 -16 41 -9 l30 6 -33 5 c-18 3 -35 2 -38 -2z"/>
<path d="M6198 2273 c6 -2 18 -2 25 0 6 3 1 5 -13 5 -14 0 -19 -2 -12 -5z"/>
<path d="M6273 2273 c15 -2 37 -2 50 0 12 2 0 4 -28 4 -27 0 -38 -2 -22 -4z"/>
<path d="M533 2178 c-1 -49 0 -50 6 -14 5 34 11 41 41 52 l35 12 -41 1 -40 1
-1 -52z"/>
<path d="M5155 2220 c3 -5 13 -10 21 -10 8 0 12 5 9 10 -3 6 -13 10 -21 10 -8
0 -12 -4 -9 -10z"/>
<path d="M430 2200 l-75 -5 0 -155 c0 -85 1 -161 3 -167 6 -19 148 -18 155 1
4 11 -2 331 -6 331 -1 0 -36 -2 -77 -5z"/>
<path d="M5170 2190 c0 -5 5 -10 10 -10 6 0 10 5 10 10 0 6 -4 10 -10 10 -5 0
-10 -4 -10 -10z"/>
<path d="M4925 2160 c7 -33 35 -85 35 -65 0 16 -26 84 -34 92 -5 5 -5 -8 -1
-27z"/>
<path d="M6518 2183 c17 -2 47 -2 65 0 17 2 3 4 -33 4 -36 0 -50 -2 -32 -4z"/>
<path d="M5181 2154 c0 -11 3 -14 6 -6 3 7 2 16 -1 19 -3 4 -6 -2 -5 -13z"/>
<path d="M923 2095 c0 -38 2 -53 4 -32 2 20 2 52 0 70 -2 17 -4 1 -4 -38z"/>
<path d="M4897 2070 c3 -10 12 -25 21 -32 13 -11 12 -8 -2 20 -19 36 -27 41
-19 12z"/>
<path d="M990 2041 c0 -17 -32 -42 -46 -37 -11 4 -14 -6 -14 -43 0 -71 10
-111 28 -111 8 0 12 3 9 7 -4 3 -2 12 5 20 9 11 8 13 -2 11 -7 -2 -15 3 -18
11 -3 8 0 11 7 7 6 -4 11 -2 11 5 0 8 4 8 16 -2 13 -11 14 -9 9 13 -4 15 -2
29 4 32 14 9 15 96 1 96 -5 0 -10 -4 -10 -9z"/>
<path d="M990 1865 c-7 -8 -8 -15 -2 -15 5 0 15 7 22 15 7 8 8 15 2 15 -5 0
-15 -7 -22 -15z"/>
<path d="M5645 1840 c-3 -5 -1 -10 4 -10 6 0 11 5 11 10 0 6 -2 10 -4 10 -3 0
-8 -4 -11 -10z"/>
<path d="M1000 1830 c-9 -6 -10 -10 -3 -10 6 0 15 5 18 10 8 12 4 12 -15 0z"/>
<path d="M950 1820 c-8 -5 -10 -10 -5 -10 6 0 17 5 25 10 8 5 11 10 5 10 -5 0
-17 -5 -25 -10z"/>
<path d="M5290 1820 c-12 -8 -10 -10 8 -10 13 0 20 4 17 10 -7 12 -6 12 -25 0z"/>
<path d="M5600 1780 c-12 -7 -10 -9 7 -7 12 0 19 5 17 9 -6 10 -6 10 -24 -2z"/>
<path d="M5380 1760 c-20 -16 -22 -20 -7 -20 9 0 17 5 17 10 0 6 7 10 15 10 8
0 15 5 15 10 0 15 -12 12 -40 -10z"/>
<path d="M5574 1744 c-18 -14 -18 -15 4 -4 12 6 22 13 22 15 0 8 -5 6 -26 -11z"/>
<path d="M5280 1739 c0 -6 -7 -9 -15 -5 -8 3 -15 2 -15 -3 0 -5 9 -11 20 -14
15 -4 20 0 20 14 0 10 -2 19 -5 19 -3 0 -5 -5 -5 -11z"/>
<path d="M5260 1701 c0 -10 19 -25 25 -20 1 2 -3 10 -11 17 -8 7 -14 8 -14 3z"/>
<path d="M4785 1603 c-18 -14 -18 -15 -1 -9 14 5 17 2 12 -9 -4 -13 -2 -14 14
-5 11 6 21 6 24 1 4 -5 0 -11 -6 -14 -9 -3 -10 -8 -2 -16 6 -7 18 -8 30 -4 18
7 17 11 -16 40 -33 29 -37 30 -55 16z"/>
<path d="M4960 1470 c0 -5 5 -10 11 -10 5 0 7 5 4 10 -3 6 -8 10 -11 10 -2 0
-4 -4 -4 -10z"/>
<path d="M5346 1444 c-5 -14 -4 -15 9 -4 17 14 19 20 6 20 -5 0 -12 -7 -15
-16z"/>
<path d="M4210 1166 c0 -2 7 -7 16 -10 8 -3 12 -2 9 4 -6 10 -25 14 -25 6z"/>
<path d="M165 940 c10 -11 20 -18 23 -16 5 6 -23 36 -34 36 -4 0 1 -9 11 -20z"/>
<path d="M77 915 c-4 -8 -3 -16 1 -19 4 -3 9 4 9 15 2 23 -3 25 -10 4z"/>
<path d="M155 800 c3 -5 8 -10 11 -10 2 0 4 5 4 10 0 6 -5 10 -11 10 -5 0 -7
-4 -4 -10z"/>
<path d="M255 740 c-3 -6 1 -7 9 -4 18 7 21 14 7 14 -6 0 -13 -4 -16 -10z"/>
<path d="M155 674 c9 -9 19 -13 23 -10 3 4 0 11 -8 16 -24 15 -33 11 -15 -6z"/>
<path d="M225 680 c-3 -5 1 -10 9 -10 9 0 16 5 16 10 0 6 -4 10 -9 10 -6 0
-13 -4 -16 -10z"/>
<path d="M200 646 c0 -10 28 -13 41 -5 10 6 7 9 -13 9 -16 0 -28 -2 -28 -4z"/>
<path d="M252 630 c-7 -11 -8 -20 -3 -20 9 0 24 30 18 36 -1 2 -8 -6 -15 -16z"/>
<path d="M61 596 c-9 -10 -8 -15 2 -19 8 -3 13 3 14 14 2 23 -1 24 -16 5z"/>
<path d="M168 593 c7 -3 16 -2 19 1 4 3 -2 6 -13 5 -11 0 -14 -3 -6 -6z"/>
<path d="M266 589 c3 -6 0 -16 -7 -21 -12 -8 -11 -9 1 -5 18 4 27 37 10 37 -6
0 -8 -5 -4 -11z"/>
<path d="M50 541 c0 -6 5 -13 10 -16 6 -3 10 1 10 9 0 9 -4 16 -10 16 -5 0
-10 -4 -10 -9z"/>
<path d="M1550 547 c0 -26 53 -98 114 -153 67 -62 213 -160 223 -150 2 2 -31
28 -74 56 -111 75 -167 123 -209 183 -45 62 -54 73 -54 64z"/>
<path d="M173 523 c-7 -3 -12 -14 -12 -26 1 -17 2 -18 6 -4 4 16 25 26 21 10
-3 -17 15 -43 31 -43 14 0 14 2 1 10 -8 5 -15 13 -15 17 -1 18 -21 40 -32 36z"/>
<path d="M168 453 c7 -3 16 -2 19 1 4 3 -2 6 -13 5 -11 0 -14 -3 -6 -6z"/>
<path d="M170 405 c7 -8 17 -15 22 -15 6 0 5 7 -2 15 -7 8 -17 15 -22 15 -6 0
-5 -7 2 -15z"/>
<path d="M252 360 c0 -14 2 -19 5 -12 2 6 2 18 0 25 -3 6 -5 1 -5 -13z"/>
<path d="M185 340 c-4 -6 -9 -8 -13 -6 -4 2 -8 -7 -8 -20 -2 -20 0 -21 12 -9
8 7 24 12 35 10 21 -4 21 -4 4 15 -21 23 -22 23 -30 10z m19 -8 c3 -5 -1 -9
-9 -9 -8 0 -12 4 -9 9 3 4 7 8 9 8 2 0 6 -4 9 -8z"/>
<path d="M70 336 c0 -9 30 -14 35 -6 4 6 -3 10 -14 10 -12 0 -21 -2 -21 -4z"/>
<path d="M4585 290 c-3 -5 -2 -10 4 -10 5 0 13 5 16 10 3 6 2 10 -4 10 -5 0
-13 -4 -16 -10z"/>
<path d="M40 281 c8 -5 26 -12 40 -16 24 -7 24 -7 5 9 -11 8 -29 15 -40 15
-16 0 -17 -1 -5 -8z"/>
<path d="M4650 281 c0 -6 4 -13 10 -16 6 -3 7 1 4 9 -7 18 -14 21 -14 7z"/>
<path d="M55 244 c22 -16 35 -18 35 -5 0 5 -12 11 -27 14 -26 5 -26 4 -8 -9z"/>
<path d="M5 230 c3 -5 11 -10 16 -10 6 0 7 5 4 10 -3 6 -11 10 -16 10 -6 0 -7
-4 -4 -10z"/>
<path d="M1339 206 c6 -8 49 -33 94 -56 61 -31 101 -44 157 -51 41 -5 87 -11
103 -15 15 -3 27 -1 27 4 0 6 -26 13 -57 17 -93 9 -173 33 -251 76 -80 43 -90
46 -73 25z"/>
<path d="M4450 210 c0 -6 30 -10 67 -10 36 0 64 2 62 4 -10 9 -129 14 -129 6z"/>
<path d="M76 193 c-6 -14 -5 -15 5 -6 7 7 10 15 7 18 -3 3 -9 -2 -12 -12z"/>
<path d="M5420 166 c0 -2 7 -9 15 -16 13 -11 14 -10 9 4 -5 14 -24 23 -24 12z"/>
<path d="M45 150 c-3 -5 1 -10 10 -10 9 0 13 5 10 10 -3 6 -8 10 -10 10 -2 0
-7 -4 -10 -10z"/>
<path d="M15 100 c3 -5 13 -10 21 -10 8 0 12 5 9 10 -3 6 -13 10 -21 10 -8 0
-12 -4 -9 -10z"/>
<path d="M1949 55 c-42 -7 -89 -20 -105 -28 -33 -18 -28 -22 11 -7 15 6 59 15
98 21 76 12 131 28 92 27 -11 0 -54 -6 -96 -13z"/>
<path d="M5985 44 c-82 -25 -98 -28 -92 -17 3 5 -6 8 -23 5 -16 -2 -31 -10
-34 -18 -5 -12 -2 -12 15 -3 15 8 19 8 15 0 -5 -8 59 -11 226 -11 l233 1 -38
19 c-82 41 -211 51 -302 24z"/>
<path d="M151 34 c0 -11 3 -14 6 -6 3 7 2 16 -1 19 -3 4 -6 -2 -5 -13z"/>
<path d="M3095 42 c-5 -4 -11 -15 -11 -24 -1 -15 15 -17 182 -17 101 1 182 5
179 9 -3 5 -77 8 -166 8 -88 0 -163 3 -166 6 -4 3 -1 6 6 6 7 0 9 5 6 10 -7
12 -16 12 -30 2z"/>
<path d="M240 14 c0 -8 5 -12 10 -9 6 4 8 11 5 16 -9 14 -15 11 -15 -7z"/>
<path d="M35 10 c-3 -5 1 -10 10 -10 9 0 13 5 10 10 -3 6 -8 10 -10 10 -2 0
-7 -4 -10 -10z"/>
<path d="M170 10 c0 -5 7 -10 15 -10 8 0 15 5 15 10 0 6 -7 10 -15 10 -8 0
-15 -4 -15 -10z"/>
<path d="M3460 10 c0 -5 9 -10 21 -10 11 0 17 4 14 10 -8 13 -35 13 -35 0z"/>
<path d="M3520 10 c0 -5 10 -10 23 -10 18 0 19 2 7 10 -19 13 -30 13 -30 0z"/>
<path d="M3575 10 c-3 -5 -2 -10 4 -10 5 0 13 5 16 10 3 6 2 10 -4 10 -5 0
-13 -4 -16 -10z"/>
<path d="M5425 10 c-4 -6 7 -10 27 -10 25 0 29 3 18 10 -19 13 -37 13 -45 0z"/>
</g>
</svg>
